<svg width="1456" height="1456" viewBox="0 0 1456 1456" fill="none" xmlns="http://www.w3.org/2000/svg">
<g opacity="0.3">
<mask id="mask0_334_1220" style="mask-type:luminance" maskUnits="userSpaceOnUse" x="0" y="0" width="1456" height="1456">
<path d="M1455.9 0H0V1455.9H1455.9V0Z" fill="white"/>
</mask>
<g mask="url(#mask0_334_1220)">
<path d="M1437.26 918.383C1437.26 930.613 1427.36 940.513 1415.13 940.513H1306.52C1294.29 940.513 1284.39 930.613 1284.39 918.383V896.254C1284.39 884.024 1294.29 874.124 1306.52 874.124H1415.13C1427.36 874.124 1437.26 884.024 1437.26 896.254V918.383Z" fill="white"/>
<path d="M1367.38 874.124H1353.7V940.513H1367.38V874.124Z" fill="#FFEB78"/>
<path d="M1284.39 907.319C1284.39 907.319 1284.39 950.123 1434.64 928.575C1434.64 928.575 1431.15 942.843 1400.28 940.223H1306.23C1306.23 940.223 1283.23 944.59 1284.39 907.319Z" fill="#FFEB78"/>
<path d="M1367.67 874.124V940.222" stroke="#1F638A" stroke-width="0.5" stroke-miterlimit="10"/>
<path d="M1353.7 874.124V940.222" stroke="#1F638A" stroke-width="0.5" stroke-miterlimit="10"/>
<path d="M1437.26 918.383C1437.26 930.613 1427.36 940.513 1415.13 940.513H1306.52C1294.29 940.513 1284.39 930.613 1284.39 918.383V896.254C1284.39 884.024 1294.29 874.124 1306.52 874.124H1415.13C1427.36 874.124 1437.26 884.024 1437.26 896.254V918.383Z" stroke="#1F638A" stroke-width="0.5" stroke-miterlimit="10"/>
</g>
<mask id="mask1_334_1220" style="mask-type:luminance" maskUnits="userSpaceOnUse" x="0" y="0" width="1456" height="1456">
<path d="M1455.9 0H0V1455.9H1455.9V0Z" fill="white"/>
</mask>
<g mask="url(#mask1_334_1220)">
<path d="M1347.87 1090.76C1338.84 1108.81 1301.28 1108.23 1263.72 1089.3C1226.16 1070.67 1203.15 1040.68 1212.18 1022.91C1221.21 1004.86 1258.77 1005.44 1296.33 1024.37C1333.89 1043.01 1356.9 1072.71 1347.87 1090.76Z" fill="white"/>
<path d="M1212.47 1022.62C1212.47 1022.62 1238.97 1087.26 1338.84 1099.2C1338.84 1099.2 1310.02 1114.63 1253.53 1083.77C1253.53 1084.06 1200.24 1051.45 1212.47 1022.62Z" fill="#D1EDFB"/>
<path d="M1257.02 1085.81L1289.64 1020.88C1289.64 1020.88 1296.92 1024.37 1301.57 1026.99L1268.96 1091.92L1257.02 1085.81Z" fill="#D1EDFB"/>
<path d="M1257.31 1085.52L1289.64 1020.88" stroke="#1F638A" stroke-width="0.5" stroke-miterlimit="10"/>
<path d="M1301.57 1026.7L1268.96 1091.63" stroke="#1F638A" stroke-width="0.5" stroke-miterlimit="10"/>
<path d="M1347.87 1090.76C1338.84 1108.81 1301.28 1108.23 1263.72 1089.3C1226.16 1070.67 1203.15 1040.68 1212.18 1022.91C1221.21 1004.86 1258.77 1005.44 1296.33 1024.37C1333.89 1043.01 1356.9 1072.71 1347.87 1090.76Z" stroke="#1F638A" stroke-width="0.5" stroke-miterlimit="10"/>
</g>
<mask id="mask2_334_1220" style="mask-type:luminance" maskUnits="userSpaceOnUse" x="0" y="0" width="1456" height="1456">
<path d="M1455.9 0H0V1455.9H1455.9V0Z" fill="white"/>
</mask>
<g mask="url(#mask2_334_1220)">
<path d="M1588.97 1126.28C1588.68 1126.58 1588.38 1127.16 1588.38 1127.74C1588.38 1128.03 1588.09 1128.03 1588.09 1128.32C1587.8 1128.61 1587.8 1129.2 1587.51 1129.49C1586.35 1131.82 1584.31 1134.73 1581.69 1138.51C1581.4 1138.8 1581.4 1139.1 1581.11 1139.39C1567.13 1157.73 1534.23 1187.72 1466.09 1189.18C1410.18 1121.62 1427.94 1067.47 1432.6 1055.82C1433.19 1054.36 1433.48 1053.49 1433.48 1053.49C1444.54 1029.32 1471.62 1017.67 1493.46 1027.87C1511.51 1036.02 1514.72 1068.92 1511.51 1089.3C1511.51 1089.6 1511.51 1089.89 1511.51 1089.89C1511.51 1089.6 1511.8 1089.6 1512.1 1089.3C1525.49 1074.75 1551.4 1056.69 1568.58 1064.55C1590.13 1074.45 1599.16 1100.95 1589.55 1124.54C1589.55 1125.41 1589.26 1125.99 1588.97 1126.28Z" fill="white"/>
<path d="M1432.31 1056.11C1432.31 1056.11 1426.49 1161.23 1494.33 1186.85C1494.33 1186.85 1471.91 1189.47 1465.8 1189.47C1465.8 1189.18 1407.27 1122.5 1432.31 1056.11Z" fill="#D1EDFB"/>
<path d="M1571.21 1150.45L1528.99 1130.94L1528.4 1106.48L1488.22 1153.95L1494.92 1110.27L1466.38 1130.36L1466.67 1102.7L1426.2 1084.35" stroke="#1F638A" stroke-width="0.5" stroke-miterlimit="10"/>
<path d="M1588.97 1126.28C1588.68 1126.58 1588.38 1127.16 1588.38 1127.74C1588.38 1128.03 1588.09 1128.03 1588.09 1128.32C1587.8 1128.61 1587.8 1129.2 1587.51 1129.49C1586.35 1131.82 1584.31 1134.73 1581.69 1138.51C1581.4 1138.8 1581.4 1139.1 1581.11 1139.39C1567.13 1157.73 1534.23 1187.72 1466.09 1189.18C1410.18 1121.62 1427.94 1067.47 1432.6 1055.82C1433.19 1054.36 1433.48 1053.49 1433.48 1053.49C1444.54 1029.32 1471.62 1017.67 1493.46 1027.87C1511.51 1036.02 1514.72 1068.92 1511.51 1089.3C1511.51 1089.6 1511.51 1089.89 1511.51 1089.89C1511.51 1089.6 1511.8 1089.6 1512.1 1089.3C1525.49 1074.75 1551.4 1056.69 1568.58 1064.55C1590.13 1074.45 1599.16 1100.95 1589.55 1124.54C1589.55 1125.41 1589.26 1125.99 1588.97 1126.28Z" stroke="#1F638A" stroke-width="0.5" stroke-miterlimit="10"/>
</g>
<mask id="mask3_334_1220" style="mask-type:luminance" maskUnits="userSpaceOnUse" x="0" y="0" width="1456" height="1456">
<path d="M1455.9 0H0V1455.9H1455.9V0Z" fill="white"/>
</mask>
<g mask="url(#mask3_334_1220)">
<path d="M1251.49 790.264L1283.23 815.014L1280.03 819.382L1267.8 810.064L1205.19 889.556L1222.37 903.242L1220.63 905.28L1214.22 900.039L1110.85 1031.94L1103.28 1026.12L1093.67 1038.06L1088.43 1033.98L1015.05 1127.74L1011.56 1125.12L1085.23 1031.36L1079.7 1027.28L1089.3 1015.05L1082.03 1009.23L1185.39 877.618L1178.99 872.376L1180.44 870.338L1197.62 883.732L1260.23 803.949L1248 794.631L1251.49 790.264Z" fill="white"/>
<path d="M1276.53 809.773L1283.23 815.014L1280.03 819.382L1267.8 810.064L1205.2 889.556L1222.38 903.241L1220.63 905.28L1214.22 900.038L1110.85 1031.94L1103.28 1026.12L1093.67 1038.06L1088.43 1033.98L1101.54 1017.68L1110.56 1021.17L1211.02 897.709L1201.41 890.138L1266.34 807.734L1276.53 809.773Z" fill="#FFEB78"/>
<path d="M1015.05 1127.74L1088.43 1033.98L1093.67 1038.06L1103.28 1026.12L1110.85 1031.94L1214.22 900.039L1220.63 905.28L1222.37 903.242L1205.19 889.556L1261.97 817.635L1267.8 810.064L1280.03 819.382L1283.23 815.014L1251.49 790.264L1248 794.631L1260.23 803.949L1234.02 837.435L1197.62 883.732L1180.44 870.338L1178.99 872.376L1185.39 877.618L1176.95 888.1L1082.03 1009.23L1089.3 1015.05L1079.7 1027.28L1085.23 1031.36L1011.56 1125.12L1015.05 1127.74Z" stroke="#1F638A" stroke-width="0.5" stroke-miterlimit="10"/>
<path d="M1214.22 900.039L1185.39 877.618" stroke="#1F638A" stroke-width="0.5" stroke-miterlimit="10"/>
<path d="M1103.28 1026.12L1096.29 1020.59L1089.3 1015.05" stroke="#1F638A" stroke-width="0.5" stroke-miterlimit="10"/>
<path d="M1092.22 994.963L1108.23 1007.77" stroke="#1F638A" stroke-width="0.5" stroke-miterlimit="10"/>
<path d="M1110.56 971.669L1126.58 984.19" stroke="#1F638A" stroke-width="0.5" stroke-miterlimit="10"/>
<path d="M1096.58 989.14L1104.74 995.546" stroke="#1F638A" stroke-width="0.5" stroke-miterlimit="10"/>
<path d="M1101.24 983.316L1109.4 989.722" stroke="#1F638A" stroke-width="0.5" stroke-miterlimit="10"/>
<path d="M1105.9 977.492L1114.06 983.898" stroke="#1F638A" stroke-width="0.5" stroke-miterlimit="10"/>
<path d="M1114.93 965.846L1123.08 971.96" stroke="#1F638A" stroke-width="0.5" stroke-miterlimit="10"/>
<path d="M1119.59 960.021L1127.74 966.135" stroke="#1F638A" stroke-width="0.5" stroke-miterlimit="10"/>
<path d="M1124.25 953.908L1132.4 960.314" stroke="#1F638A" stroke-width="0.5" stroke-miterlimit="10"/>
<path d="M1133.57 942.261L1141.43 948.667" stroke="#1F638A" stroke-width="0.5" stroke-miterlimit="10"/>
<path d="M1137.93 936.436L1146.09 942.842" stroke="#1F638A" stroke-width="0.5" stroke-miterlimit="10"/>
<path d="M1142.59 930.612L1150.74 937.018" stroke="#1F638A" stroke-width="0.5" stroke-miterlimit="10"/>
<path d="M1151.91 918.965L1159.77 925.371" stroke="#1F638A" stroke-width="0.5" stroke-miterlimit="10"/>
<path d="M1156.28 913.142L1164.43 919.548" stroke="#1F638A" stroke-width="0.5" stroke-miterlimit="10"/>
<path d="M1160.93 907.318L1169.09 913.433" stroke="#1F638A" stroke-width="0.5" stroke-miterlimit="10"/>
<path d="M1128.9 948.084L1144.92 960.896" stroke="#1F638A" stroke-width="0.5" stroke-miterlimit="10"/>
<path d="M1147.25 924.789L1163.26 937.31" stroke="#1F638A" stroke-width="0.5" stroke-miterlimit="10"/>
<path d="M1165.59 901.495L1181.61 914.016" stroke="#1F638A" stroke-width="0.5" stroke-miterlimit="10"/>
<path d="M1088.43 1033.98L1085.23 1031.36" stroke="#1F638A" stroke-width="0.5" stroke-miterlimit="10"/>
</g>
<mask id="mask4_334_1220" style="mask-type:luminance" maskUnits="userSpaceOnUse" x="0" y="0" width="1456" height="1456">
<path d="M1455.9 0H0V1455.9H1455.9V0Z" fill="white"/>
</mask>
<g mask="url(#mask4_334_1220)">
<path d="M1178.11 1168.21C1184.52 1181.32 1178.7 1197.04 1165.59 1203.45C1152.49 1209.85 1136.77 1204.03 1130.36 1190.93C1123.95 1177.82 1129.78 1162.1 1142.88 1155.69C1155.98 1149.58 1171.71 1155.11 1178.11 1168.21Z" fill="white"/>
<path d="M1179.57 1187.14C1177.53 1193.55 1172.58 1200.24 1165.59 1203.45C1152.49 1209.85 1136.76 1204.03 1130.36 1190.93C1127.16 1184.23 1127.16 1177.24 1129.19 1170.84C1129.19 1170.84 1132.11 1194.42 1151.91 1198.21C1151.91 1198.21 1156.56 1199.95 1163.26 1198.21L1150.16 1163.26L1166.17 1197.04C1170.54 1195.59 1174.91 1192.67 1179.57 1187.14Z" fill="#FFEB78"/>
<path d="M1139.97 1157.44L1162.68 1204.9" stroke="#1F638A" stroke-width="0.5" stroke-miterlimit="10"/>
<path d="M1165.3 1155.7C1170.55 1158.32 1175.2 1162.39 1178.12 1168.22C1183.94 1180.45 1179.57 1195 1168.51 1201.99L1146.09 1155.11" stroke="#1F638A" stroke-width="0.5" stroke-miterlimit="10"/>
<path d="M1178.11 1168.21C1184.52 1181.32 1178.7 1197.04 1165.59 1203.45C1152.49 1209.85 1136.77 1204.03 1130.36 1190.93C1123.95 1177.82 1129.78 1162.1 1142.88 1155.69C1155.98 1149.58 1171.71 1155.11 1178.11 1168.21Z" stroke="#1F638A" stroke-width="0.5" stroke-miterlimit="10"/>
</g>
<mask id="mask5_334_1220" style="mask-type:luminance" maskUnits="userSpaceOnUse" x="0" y="0" width="1456" height="1456">
<path d="M1455.9 0H0V1455.9H1455.9V0Z" fill="white"/>
</mask>
<g mask="url(#mask5_334_1220)">
<path d="M1466.38 1426.49C1466.67 1447.16 1450.07 1464.34 1429.4 1464.63C1408.73 1464.92 1391.55 1448.33 1391.26 1427.65C1390.96 1406.98 1407.56 1389.8 1428.24 1389.51C1448.91 1389.22 1466.09 1405.81 1466.38 1426.49Z" fill="white"/>
<path d="M1457.06 1451.82C1450.37 1459.1 1440.47 1464.63 1429.4 1464.63C1408.73 1464.92 1391.55 1448.33 1391.26 1427.65C1390.96 1417.17 1395.04 1407.85 1402.03 1400.87C1402.03 1400.87 1391.84 1433.19 1415.13 1450.07C1415.13 1450.07 1420.08 1455.02 1429.69 1456.77L1433.48 1403.78L1434.35 1457.06C1440.47 1457.35 1448.04 1455.9 1457.06 1451.82Z" fill="#FFEB78"/>
<path d="M1423.29 1389.51L1424.45 1464.63" stroke="#1F638A" stroke-width="0.5" stroke-miterlimit="10"/>
<path d="M1457.35 1402.61C1462.89 1409.02 1466.09 1417.46 1466.38 1426.49C1466.67 1445.71 1452.4 1461.72 1433.77 1464.34L1432.6 1390.09" stroke="#1F638A" stroke-width="0.5" stroke-miterlimit="10"/>
<path d="M1466.38 1426.49C1466.67 1447.16 1450.07 1464.34 1429.4 1464.63C1408.73 1464.92 1391.55 1448.33 1391.26 1427.65C1390.96 1406.98 1407.56 1389.8 1428.24 1389.51C1448.91 1389.22 1466.09 1405.81 1466.38 1426.49Z" stroke="#1F638A" stroke-width="0.5" stroke-miterlimit="10"/>
</g>
<mask id="mask6_334_1220" style="mask-type:luminance" maskUnits="userSpaceOnUse" x="0" y="0" width="1456" height="1456">
<path d="M1455.9 0H0V1455.9H1455.9V0Z" fill="white"/>
</mask>
<g mask="url(#mask6_334_1220)">
<path d="M1377.86 1345.25C1366.21 1358.35 1350.49 1365.34 1331.27 1366.22C1331.56 1407.56 1322.83 1437.26 1305.65 1453.86C1292.55 1466.67 1278.57 1467.25 1275.37 1467.25C1275.08 1467.25 1274.78 1467.25 1274.78 1467.25C1257.9 1466.96 1244.21 1461.14 1234.31 1449.49C1215.67 1427.95 1215.67 1392.42 1216.84 1376.12C1205.48 1373.49 1197.04 1363.3 1197.04 1351.07C1197.04 1336.81 1208.69 1325.45 1222.66 1325.45C1236.93 1325.45 1248.29 1337.1 1248.29 1351.07C1248.29 1363.89 1238.97 1374.37 1227.03 1376.41C1226.16 1390.97 1225.87 1423.87 1242.17 1442.8C1250.03 1452.11 1261.1 1456.77 1275.08 1457.06C1275.66 1457.06 1287.3 1457.35 1298.66 1446.29C1309.14 1436.1 1321.37 1413.97 1321.08 1366.22C1301.86 1365.34 1286.43 1358.35 1274.49 1345.25C1242.75 1310.31 1249.74 1244.79 1250.03 1242.17C1251.2 1231.11 1255.57 1222.66 1263.14 1217.71C1269.83 1213.05 1277.99 1211.6 1283.81 1211.6C1284.98 1208.4 1287.89 1206.36 1291.38 1206.36H1295.17C1299.83 1206.36 1303.32 1210.14 1303.32 1214.8C1303.32 1219.46 1299.53 1222.95 1295.17 1222.95H1291.38C1287.6 1222.95 1284.39 1220.33 1283.52 1216.84C1278.28 1216.84 1271.58 1218 1266.05 1221.79C1259.93 1226.16 1256.44 1233.15 1255.28 1242.75C1255.28 1243.34 1248.29 1308.56 1278.28 1341.76C1289.93 1354.86 1306.23 1361.27 1326.03 1360.97C1326.32 1360.97 1326.61 1360.97 1326.91 1360.97C1346.41 1360.97 1362.14 1354.57 1373.79 1341.76C1403.78 1308.56 1397.08 1243.34 1396.79 1242.75C1395.62 1233.15 1392.13 1226.16 1386.01 1221.79C1381.36 1218.3 1375.53 1217.13 1370.87 1216.84C1370.29 1220.63 1366.8 1223.54 1362.72 1223.54H1358.94C1354.28 1223.54 1350.78 1219.75 1350.78 1215.38C1350.78 1210.73 1354.57 1206.94 1358.94 1206.94H1362.72C1365.92 1206.94 1368.84 1208.98 1370 1211.6C1375.82 1211.89 1382.81 1213.35 1388.93 1217.71C1396.21 1222.95 1400.57 1231.11 1402.03 1242.17C1402.61 1245.08 1409.6 1310.31 1377.86 1345.25Z" fill="white"/>
<path d="M1201.7 1336.81C1201.7 1336.81 1197.91 1367.38 1233.44 1374.66C1233.44 1374.66 1212.18 1381.07 1203.15 1368.55C1191.8 1353.11 1201.7 1336.81 1201.7 1336.81Z" fill="#FFEB78"/>
<path d="M1216.84 1376.41C1216.84 1376.41 1216.26 1484.14 1300.12 1458.52C1300.12 1458.52 1266.34 1483.85 1234.31 1449.49C1234.31 1449.78 1212.18 1426.49 1216.84 1376.41Z" fill="#FFEB78"/>
<path d="M1377.86 1345.25C1366.21 1358.35 1350.49 1365.34 1331.27 1366.22C1331.56 1407.56 1322.83 1437.26 1305.65 1453.86C1292.55 1466.67 1278.57 1467.26 1275.37 1467.26C1275.08 1467.26 1274.78 1467.26 1274.78 1467.26C1257.9 1466.96 1244.21 1461.14 1234.31 1449.49C1215.67 1427.95 1215.67 1392.42 1216.84 1376.12C1205.48 1373.5 1197.04 1363.3 1197.04 1351.08C1197.04 1336.81 1208.69 1325.45 1222.66 1325.45C1236.93 1325.45 1248.29 1337.1 1248.29 1351.08C1248.29 1363.89 1238.97 1374.37 1227.03 1376.41C1226.16 1390.97 1225.87 1423.87 1242.17 1442.8C1250.03 1452.11 1261.1 1456.77 1275.08 1457.06C1275.66 1457.06 1287.3 1457.36 1298.66 1446C1309.14 1435.81 1321.37 1413.68 1321.08 1365.93C1301.86 1365.05 1286.43 1358.06 1274.49 1344.96C1242.75 1310.02 1249.74 1244.5 1250.03 1241.88C1251.2 1230.82 1255.57 1222.37 1263.14 1217.42C1269.83 1212.76 1277.99 1211.31 1283.81 1211.31C1284.98 1208.11 1287.89 1206.07 1291.38 1206.07H1295.17C1299.83 1206.07 1303.32 1209.85 1303.32 1214.51C1303.32 1219.17 1299.53 1222.66 1295.17 1222.66H1291.38C1287.6 1222.66 1284.39 1220.04 1283.52 1216.55C1278.28 1216.55 1271.58 1217.71 1266.05 1221.79C1259.93 1226.16 1256.44 1233.15 1255.28 1242.76C1255.28 1243.34 1248.29 1308.56 1278.28 1341.76C1289.93 1354.86 1306.23 1361.27 1326.03 1360.98C1326.32 1360.98 1326.61 1360.98 1326.91 1360.98C1346.41 1360.98 1362.14 1354.57 1373.79 1341.76C1403.78 1308.56 1397.08 1243.34 1396.79 1242.76C1395.62 1233.15 1392.13 1226.16 1386.01 1221.79C1381.36 1218.3 1375.53 1217.13 1370.87 1216.84C1370.29 1220.63 1366.8 1223.54 1362.72 1223.54H1358.94C1354.28 1223.54 1350.78 1219.75 1350.78 1215.39C1350.78 1210.73 1354.57 1206.94 1358.94 1206.94H1362.72C1365.92 1206.94 1368.84 1208.98 1370 1211.6C1375.82 1211.89 1382.81 1213.35 1388.93 1217.71C1396.21 1222.96 1400.57 1231.11 1402.03 1242.17C1402.61 1245.09 1409.6 1310.31 1377.86 1345.25Z" stroke="#1F638A" stroke-width="0.5" stroke-miterlimit="10"/>
<path d="M1216.84 1376.41L1227.03 1376.7" stroke="#1F638A" stroke-width="0.5" stroke-miterlimit="10"/>
<path d="M1238.68 1350.2C1238.68 1358.65 1231.69 1365.63 1223.24 1365.63C1214.8 1365.63 1207.81 1358.65 1207.81 1350.2C1207.81 1341.76 1214.8 1334.77 1223.24 1334.77C1231.69 1334.77 1238.68 1341.76 1238.68 1350.2Z" stroke="#1F638A" stroke-width="0.5" stroke-miterlimit="10"/>
<path d="M1283.81 1211.6L1283.52 1216.84" stroke="#1F638A" stroke-width="0.5" stroke-miterlimit="10"/>
<path d="M1370.58 1211.6L1371.16 1216.84" stroke="#1F638A" stroke-width="0.5" stroke-miterlimit="10"/>
</g>
<mask id="mask7_334_1220" style="mask-type:luminance" maskUnits="userSpaceOnUse" x="0" y="0" width="1456" height="1456">
<path d="M1455.9 0H0V1455.9H1455.9V0Z" fill="white"/>
</mask>
<g mask="url(#mask7_334_1220)">
<path d="M1141.43 1433.19C1146.08 1450.95 1135.6 1469 1118.13 1473.66C1100.66 1478.32 1082.61 1467.84 1077.66 1450.37C1074.16 1436.97 1079.4 1423 1090.18 1415.13L1045.34 1247.12C1043.88 1241.59 1047.67 1235.48 1054.07 1233.73C1057.27 1232.86 1060.48 1233.15 1063.1 1234.6C1065.72 1235.77 1067.76 1238.1 1068.34 1241.01L1113.18 1409.02C1126.28 1410.48 1137.64 1419.79 1141.43 1433.19Z" fill="white"/>
<path d="M1054.07 1233.73C1050.29 1235.19 1043.88 1241.3 1045.34 1247.12L1090.18 1415.14C1079.41 1423 1074.16 1436.68 1077.66 1450.37C1082.32 1468.13 1100.37 1478.61 1118.13 1473.66C1135.89 1469 1146.38 1450.95 1141.43 1433.19C1141.14 1432.02 1140.84 1431.15 1140.26 1429.99C1140.26 1429.99 1137.64 1458.81 1115.51 1464.64C1115.51 1464.64 1092.8 1470.17 1085.23 1448.33C1085.23 1448.33 1082.03 1423 1097.75 1420.67L1053.2 1247.12C1053.2 1247.42 1052.03 1243.63 1054.07 1233.73Z" fill="#D1EDFB"/>
<path d="M1109.1 1395.33L1097.75 1398.25" stroke="#1F638A" stroke-width="0.5" stroke-miterlimit="10"/>
<path d="M1070.96 1252.66L1059.9 1255.86" stroke="#1F638A" stroke-width="0.5" stroke-miterlimit="10"/>
<path d="M1077.37 1276.53L1066.3 1279.45" stroke="#1F638A" stroke-width="0.5" stroke-miterlimit="10"/>
<path d="M1083.77 1300.41L1072.41 1303.32" stroke="#1F638A" stroke-width="0.5" stroke-miterlimit="10"/>
<path d="M1090.18 1324L1078.82 1326.91" stroke="#1F638A" stroke-width="0.5" stroke-miterlimit="10"/>
<path d="M1096.29 1347.87L1085.23 1350.78" stroke="#1F638A" stroke-width="0.5" stroke-miterlimit="10"/>
<path d="M1102.7 1371.46L1091.63 1374.66" stroke="#1F638A" stroke-width="0.5" stroke-miterlimit="10"/>
<path d="M1141.43 1433.19C1146.08 1450.95 1135.6 1469 1118.13 1473.66C1100.66 1478.32 1082.61 1467.84 1077.66 1450.37C1074.16 1436.97 1079.4 1423 1090.18 1415.13L1045.34 1247.12C1043.88 1241.59 1047.67 1235.48 1054.07 1233.73C1057.27 1232.86 1060.48 1233.15 1063.1 1234.6C1065.72 1235.77 1067.76 1238.1 1068.34 1241.01L1113.18 1409.02C1126.28 1410.48 1137.64 1419.79 1141.43 1433.19Z" stroke="#1F638A" stroke-width="0.5" stroke-miterlimit="10"/>
</g>
<mask id="mask8_334_1220" style="mask-type:luminance" maskUnits="userSpaceOnUse" x="0" y="0" width="1456" height="1456">
<path d="M1455.9 0H0V1455.9H1455.9V0Z" fill="white"/>
</mask>
<g mask="url(#mask8_334_1220)">
<path d="M1534.52 124.041L1566.26 149.083L1563.05 153.159L1550.82 143.841L1488.22 223.625L1505.4 237.019L1503.65 239.057L1497.25 233.816L1393.59 365.72L1386.31 359.897L1376.7 371.835L1371.46 367.759L1298.08 461.518L1294.59 458.898L1367.96 365.138L1362.72 361.061L1372.33 348.832L1365.05 343.008L1468.42 211.395L1462.01 206.154L1463.47 204.115L1480.65 217.51L1543.25 137.726L1531.02 128.409L1534.52 124.041Z" fill="white"/>
<path d="M1559.56 143.55L1566.26 149.082L1563.06 153.159L1550.83 143.841L1488.22 223.624L1505.4 237.019L1503.65 239.057L1497.25 233.816L1393.59 365.72L1386.31 359.897L1376.7 371.835L1371.46 367.758L1384.27 351.452L1393.59 354.947L1494.05 231.486L1484.44 223.916L1549.37 141.512L1559.56 143.55Z" fill="#FFEB78"/>
<path d="M1298.08 461.518L1371.46 367.759L1376.7 371.835L1386.31 359.897L1393.59 365.72L1497.25 233.816L1503.65 239.057L1505.4 237.019L1488.22 223.625L1544.71 151.412L1550.82 143.841L1563.05 153.159L1566.26 149.083L1534.52 124.041L1531.02 128.409L1543.25 137.726L1517.05 171.212L1480.65 217.51L1463.47 204.115L1462.01 206.154L1468.42 211.395L1459.98 221.877L1365.05 343.008L1372.33 348.832L1362.72 361.061L1367.96 365.138L1294.59 458.898L1298.08 461.518Z" stroke="#1F638A" stroke-width="0.5" stroke-miterlimit="10"/>
<path d="M1386.31 359.897L1379.32 354.364L1372.33 348.832" stroke="#1F638A" stroke-width="0.5" stroke-miterlimit="10"/>
<path d="M1374.95 328.74L1391.26 341.552" stroke="#1F638A" stroke-width="0.5" stroke-miterlimit="10"/>
<path d="M1393.59 305.446L1409.6 317.967" stroke="#1F638A" stroke-width="0.5" stroke-miterlimit="10"/>
<path d="M1379.61 322.917L1387.76 329.323" stroke="#1F638A" stroke-width="0.5" stroke-miterlimit="10"/>
<path d="M1384.27 317.093L1392.42 323.499" stroke="#1F638A" stroke-width="0.5" stroke-miterlimit="10"/>
<path d="M1388.93 311.27L1396.79 317.675" stroke="#1F638A" stroke-width="0.5" stroke-miterlimit="10"/>
<path d="M1397.96 299.623L1406.11 305.738" stroke="#1F638A" stroke-width="0.5" stroke-miterlimit="10"/>
<path d="M1402.61 293.798L1410.77 299.913" stroke="#1F638A" stroke-width="0.5" stroke-miterlimit="10"/>
<path d="M1407.27 287.974L1415.43 294.088" stroke="#1F638A" stroke-width="0.5" stroke-miterlimit="10"/>
<path d="M1416.3 276.038L1424.45 282.444" stroke="#1F638A" stroke-width="0.5" stroke-miterlimit="10"/>
<path d="M1420.96 270.213L1429.11 276.619" stroke="#1F638A" stroke-width="0.5" stroke-miterlimit="10"/>
<path d="M1425.62 264.39L1433.77 270.796" stroke="#1F638A" stroke-width="0.5" stroke-miterlimit="10"/>
<path d="M1434.93 252.742L1442.8 259.148" stroke="#1F638A" stroke-width="0.5" stroke-miterlimit="10"/>
<path d="M1439.3 246.919L1447.46 253.325" stroke="#1F638A" stroke-width="0.5" stroke-miterlimit="10"/>
<path d="M1443.96 241.096L1452.11 247.502" stroke="#1F638A" stroke-width="0.5" stroke-miterlimit="10"/>
<path d="M1411.93 281.861L1427.95 294.673" stroke="#1F638A" stroke-width="0.5" stroke-miterlimit="10"/>
<path d="M1430.28 258.566L1446.29 271.378" stroke="#1F638A" stroke-width="0.5" stroke-miterlimit="10"/>
<path d="M1448.62 235.272L1464.64 247.793" stroke="#1F638A" stroke-width="0.5" stroke-miterlimit="10"/>
<path d="M1371.46 367.758L1367.96 365.138" stroke="#1F638A" stroke-width="0.5" stroke-miterlimit="10"/>
</g>
<mask id="mask9_334_1220" style="mask-type:luminance" maskUnits="userSpaceOnUse" x="0" y="0" width="1456" height="1456">
<path d="M1455.9 0H0V1455.9H1455.9V0Z" fill="white"/>
</mask>
<g mask="url(#mask9_334_1220)">
<path d="M1461.14 502.284C1467.55 515.387 1461.72 531.111 1448.62 537.517C1435.52 543.923 1419.79 538.099 1413.39 524.996C1406.98 511.893 1412.81 496.169 1425.91 489.763C1439.01 483.357 1454.74 488.89 1461.14 502.284Z" fill="white"/>
<path d="M1462.6 520.918C1460.56 527.324 1455.61 534.021 1448.62 537.224C1435.52 543.63 1419.79 537.806 1413.39 524.703C1410.18 518.006 1410.18 511.018 1412.22 504.612C1412.22 504.612 1415.13 528.197 1434.93 531.983C1434.93 531.983 1439.59 533.73 1446.29 531.983L1433.19 497.041L1449.2 530.818C1453.57 529.362 1457.94 526.45 1462.6 520.918Z" fill="#FFEB78"/>
<path d="M1422.71 491.218L1445.42 538.68" stroke="#1F638A" stroke-width="0.5" stroke-miterlimit="10"/>
<path d="M1448.33 489.471C1453.57 492.092 1458.23 496.168 1461.14 501.992C1466.97 514.221 1462.6 528.78 1451.53 535.769L1429.11 488.889" stroke="#1F638A" stroke-width="0.5" stroke-miterlimit="10"/>
<path d="M1461.14 502.284C1467.55 515.387 1461.72 531.111 1448.62 537.517C1435.52 543.923 1419.79 538.099 1413.39 524.996C1406.98 511.893 1412.81 496.169 1425.91 489.763C1439.01 483.357 1454.74 488.89 1461.14 502.284Z" stroke="#1F638A" stroke-width="0.5" stroke-miterlimit="10"/>
</g>
<mask id="mask10_334_1220" style="mask-type:luminance" maskUnits="userSpaceOnUse" x="0" y="0" width="1456" height="1456">
<path d="M1455.9 0H0V1455.9H1455.9V0Z" fill="white"/>
</mask>
<g mask="url(#mask10_334_1220)">
<path d="M1424.16 766.969C1428.82 784.731 1418.34 802.784 1400.87 807.443C1383.4 812.102 1365.34 801.62 1360.39 784.149C1356.9 770.755 1362.14 756.778 1372.91 748.916L1328.07 580.905C1326.62 575.373 1330.4 569.258 1336.81 567.511C1340.01 566.637 1343.21 566.929 1345.83 568.384C1348.45 569.549 1350.49 571.879 1351.07 574.79L1395.92 742.801C1409.02 744.257 1420.67 753.575 1424.16 766.969Z" fill="white"/>
<path d="M1337.1 567.512C1333.31 568.968 1326.91 575.082 1328.36 580.906L1373.2 748.917C1362.43 756.779 1357.19 770.464 1360.68 784.15C1365.34 801.912 1383.39 812.394 1401.16 807.444C1418.92 802.785 1429.4 784.732 1424.45 766.97C1424.16 765.805 1423.87 764.932 1423.29 763.767C1423.29 763.767 1420.67 792.594 1398.54 798.417C1398.54 798.417 1375.82 803.95 1368.25 782.111C1368.25 782.111 1365.05 756.779 1380.77 754.449L1336.22 581.197C1336.22 581.197 1335.06 577.412 1337.1 567.512Z" fill="#D1EDFB"/>
<path d="M1392.13 729.116L1380.78 732.028" stroke="#1F638A" stroke-width="0.5" stroke-miterlimit="10"/>
<path d="M1353.99 586.728L1342.92 589.639" stroke="#1F638A" stroke-width="0.5" stroke-miterlimit="10"/>
<path d="M1360.39 610.315L1349.33 613.227" stroke="#1F638A" stroke-width="0.5" stroke-miterlimit="10"/>
<path d="M1366.8 634.19L1355.44 637.102" stroke="#1F638A" stroke-width="0.5" stroke-miterlimit="10"/>
<path d="M1372.91 657.777L1361.85 660.689" stroke="#1F638A" stroke-width="0.5" stroke-miterlimit="10"/>
<path d="M1379.32 681.654L1368.25 684.566" stroke="#1F638A" stroke-width="0.5" stroke-miterlimit="10"/>
<path d="M1385.73 705.239L1374.37 708.442" stroke="#1F638A" stroke-width="0.5" stroke-miterlimit="10"/>
<path d="M1424.45 766.969C1429.11 784.731 1418.63 802.784 1401.16 807.443C1383.69 812.102 1365.63 801.62 1360.68 784.149C1357.19 770.755 1362.43 756.778 1373.2 748.916L1328.36 580.905C1326.91 575.373 1330.69 569.258 1337.1 567.511C1340.3 566.637 1343.5 566.929 1346.12 568.384C1348.74 569.549 1350.78 571.879 1351.36 574.79L1396.21 742.801C1409.31 744.257 1420.67 753.575 1424.45 766.969Z" stroke="#1F638A" stroke-width="0.5" stroke-miterlimit="10"/>
</g>
<mask id="mask11_334_1220" style="mask-type:luminance" maskUnits="userSpaceOnUse" x="0" y="0" width="1456" height="1456">
<path d="M1455.9 0H0V1455.9H1455.9V0Z" fill="white"/>
</mask>
<g mask="url(#mask11_334_1220)">
<path d="M1502.2 67.2632C1502.2 76.5809 1494.63 84.1516 1485.31 84.1516H1402.62C1393.3 84.1516 1385.73 76.5809 1385.73 67.2632V50.3747C1385.73 41.057 1393.3 33.4863 1402.62 33.4863H1485.31C1494.63 33.4863 1502.2 41.057 1502.2 50.3747V67.2632Z" fill="white"/>
<path d="M1449.2 33.4863H1438.72V83.8604H1449.2V33.4863Z" fill="#FFEB78"/>
<path d="M1386.02 58.8203C1386.02 58.8203 1386.02 91.4324 1500.16 75.1264C1500.16 75.1264 1497.54 85.9 1474.24 84.153H1402.91C1402.61 83.8618 1385.14 87.3559 1386.02 58.8203Z" fill="#FFEB78"/>
<path d="M1449.2 33.4863V83.8604" stroke="#1F638A" stroke-width="0.5" stroke-miterlimit="10"/>
<path d="M1438.72 33.4863V83.8604" stroke="#1F638A" stroke-width="0.5" stroke-miterlimit="10"/>
<path d="M1502.2 67.2632C1502.2 76.5809 1494.63 84.1516 1485.31 84.1516H1402.62C1393.3 84.1516 1385.73 76.5809 1385.73 67.2632V50.3747C1385.73 41.057 1393.3 33.4863 1402.62 33.4863H1485.31C1494.63 33.4863 1502.2 41.057 1502.2 50.3747V67.2632Z" stroke="#1F638A" stroke-width="0.5" stroke-miterlimit="10"/>
</g>
<mask id="mask12_334_1220" style="mask-type:luminance" maskUnits="userSpaceOnUse" x="0" y="0" width="1456" height="1456">
<path d="M1455.9 0H0V1455.9H1455.9V0Z" fill="white"/>
</mask>
<g mask="url(#mask12_334_1220)">
<path d="M1287.31 32.321C1287.02 32.6122 1286.72 33.1945 1286.72 33.7769C1286.72 34.0681 1286.43 34.0681 1286.43 34.3592C1286.14 34.6504 1286.14 35.2328 1285.85 35.524C1284.69 37.8534 1282.65 40.7652 1280.03 44.5505C1279.74 44.8417 1279.74 45.1329 1279.44 45.4241C1265.47 63.7684 1232.56 93.76 1164.43 95.2159C1108.52 27.6621 1126.28 -26.4973 1130.94 -38.1445C1131.53 -39.6004 1131.82 -40.474 1131.82 -40.474C1142.88 -64.6419 1169.96 -76.2891 1191.8 -66.0978C1209.85 -57.9448 1213.06 -25.0414 1209.85 -4.65884C1209.85 -4.36766 1209.85 -4.07649 1209.85 -4.07649C1209.85 -4.36767 1210.14 -4.36766 1210.44 -4.65884C1223.83 -19.2178 1249.74 -37.271 1266.92 -29.4091C1288.47 -19.509 1297.5 6.98834 1287.89 30.5739C1287.89 31.4475 1287.6 32.0298 1287.31 32.321Z" fill="white"/>
<path d="M1130.94 -38.1436C1130.94 -38.1436 1125.12 66.9724 1192.96 92.5962C1192.96 92.5962 1170.54 95.2168 1164.43 95.2168C1164.43 95.2168 1105.61 28.5366 1130.94 -38.1436Z" fill="#D1EDFB"/>
<path d="M1269.84 56.4906L1227.32 36.9815L1226.74 12.2312L1186.56 59.6935L1193.55 16.3078L1164.72 36.3992L1165.01 8.73708L1124.54 -9.89844" stroke="#1F638A" stroke-width="0.5" stroke-miterlimit="10"/>
<path d="M1287.31 32.321C1287.02 32.6122 1286.72 33.1945 1286.72 33.7769C1286.72 34.0681 1286.43 34.0681 1286.43 34.3592C1286.14 34.6504 1286.14 35.2328 1285.85 35.524C1284.69 37.8534 1282.65 40.7652 1280.03 44.5505C1279.74 44.8417 1279.74 45.1329 1279.44 45.4241C1265.47 63.7684 1232.56 93.76 1164.43 95.2159C1108.52 27.6621 1126.28 -26.4973 1130.94 -38.1445C1131.53 -39.6004 1131.82 -40.474 1131.82 -40.474C1142.88 -64.6419 1169.96 -76.2891 1191.8 -66.0978C1209.85 -57.9448 1213.06 -25.0414 1209.85 -4.65884C1209.85 -4.36766 1209.85 -4.07649 1209.85 -4.07649C1209.85 -4.36767 1210.14 -4.36766 1210.44 -4.65884C1223.83 -19.2178 1249.74 -37.271 1266.92 -29.4091C1288.47 -19.509 1297.5 6.98834 1287.89 30.5739C1287.89 31.4475 1287.6 32.0298 1287.31 32.321Z" stroke="#1F638A" stroke-width="0.5" stroke-miterlimit="10"/>
</g>
<mask id="mask13_334_1220" style="mask-type:luminance" maskUnits="userSpaceOnUse" x="0" y="0" width="1456" height="1456">
<path d="M1455.9 0H0V1455.9H1455.9V0Z" fill="white"/>
</mask>
<g mask="url(#mask13_334_1220)">
<path d="M921.877 -331.943L953.906 -307.193L950.412 -302.825L938.183 -312.434L875.579 -232.651L892.759 -219.257L891.012 -216.927L884.606 -222.169L781.237 -90.2641L773.666 -96.0877L764.348 -84.1493L759.107 -88.2258L685.439 5.53412L681.944 2.62232L755.613 -90.8464L750.372 -95.2141L759.689 -107.153L752.41 -112.976L855.779 -244.881L849.373 -249.831L851.12 -251.869L868.008 -238.475L930.612 -318.258L918.674 -327.867L921.877 -331.943Z" fill="white"/>
<path d="M685.439 5.53412L759.107 -88.2258L764.348 -84.1493L773.666 -96.0877L781.237 -90.2641L884.606 -222.169L891.012 -216.927L892.759 -219.257L875.579 -232.651L932.359 -304.864L938.183 -312.434L950.412 -302.825L953.906 -307.193L921.877 -331.943L918.674 -327.867L930.612 -318.258L904.406 -284.772L868.008 -238.475L851.12 -251.869L849.373 -249.831L855.779 -244.881L847.626 -234.107L752.41 -112.976L759.689 -107.153L750.372 -95.2141L755.613 -90.8464L681.944 2.62232L685.439 5.53412Z" stroke="#1F638A" stroke-width="0.5" stroke-miterlimit="10"/>
</g>
<mask id="mask14_334_1220" style="mask-type:luminance" maskUnits="userSpaceOnUse" x="0" y="0" width="1456" height="1456">
<path d="M1455.9 0H0V1455.9H1455.9V0Z" fill="white"/>
</mask>
<g mask="url(#mask14_334_1220)">
<path d="M861.312 58.5273C867.718 71.6304 861.895 87.3541 848.792 93.7601C835.688 100.166 819.965 94.3424 813.559 81.2393C807.153 68.1363 812.976 52.4125 826.079 46.0066C839.183 39.8918 854.906 45.4242 861.312 58.5273Z" fill="white"/>
<path d="M862.766 77.4539C860.728 83.8598 855.778 90.557 848.789 93.76C835.686 100.166 819.963 94.3423 813.557 81.2392C810.354 74.5421 810.354 67.5538 812.392 61.1478C812.392 61.1478 815.304 84.7334 835.104 88.5187C835.104 88.5187 839.763 90.2658 846.46 88.5187L833.357 53.5771L849.372 87.354C853.739 85.8981 858.107 82.9863 862.766 77.4539Z" fill="#FFEB78"/>
<path d="M822.877 47.7539L845.589 95.2162" stroke="#1F638A" stroke-width="0.5" stroke-miterlimit="10"/>
<path d="M848.502 46.0081C853.743 48.6288 858.402 52.7053 861.314 58.5289C867.138 70.7584 862.77 85.3174 851.705 92.3058L829.284 45.4258" stroke="#1F638A" stroke-width="0.5" stroke-miterlimit="10"/>
<path d="M861.312 58.5273C867.718 71.6304 861.895 87.3541 848.792 93.7601C835.688 100.166 819.965 94.3424 813.559 81.2393C807.153 68.1363 812.976 52.4125 826.079 46.0066C839.183 39.8918 854.906 45.4242 861.312 58.5273Z" stroke="#1F638A" stroke-width="0.5" stroke-miterlimit="10"/>
</g>
<mask id="mask15_334_1220" style="mask-type:luminance" maskUnits="userSpaceOnUse" x="0" y="0" width="1456" height="1456">
<path d="M1455.9 0H0V1455.9H1455.9V0Z" fill="white"/>
</mask>
<g mask="url(#mask15_334_1220)">
<path d="M1185.1 364.557C1185.39 385.231 1168.8 402.41 1148.12 402.701C1127.45 402.993 1110.27 386.395 1109.98 365.722C1109.69 345.048 1126.29 327.868 1146.96 327.577C1167.63 327.286 1184.81 343.883 1185.1 364.557Z" fill="white"/>
<path d="M1175.79 389.89C1169.09 397.17 1159.19 402.702 1148.12 402.702C1127.45 402.993 1110.27 386.396 1109.98 365.722C1109.69 355.24 1113.76 345.922 1120.75 338.934C1120.75 338.934 1110.56 371.255 1133.86 388.143C1133.86 388.143 1138.81 393.093 1148.42 394.84L1152.2 341.845L1153.07 395.131C1158.9 395.422 1166.76 393.967 1175.79 389.89Z" fill="#FFEB78"/>
<path d="M1142.01 327.577L1143.17 402.702" stroke="#1F638A" stroke-width="0.5" stroke-miterlimit="10"/>
<path d="M1176.08 340.679C1181.61 347.085 1184.81 355.529 1185.1 364.556C1185.4 383.774 1171.13 399.788 1152.49 402.409L1151.33 328.158" stroke="#1F638A" stroke-width="0.5" stroke-miterlimit="10"/>
<path d="M1185.1 364.557C1185.39 385.231 1168.8 402.41 1148.12 402.701C1127.45 402.993 1110.27 386.395 1109.98 365.722C1109.69 345.048 1126.29 327.868 1146.96 327.577C1167.63 327.286 1184.81 343.883 1185.1 364.557Z" stroke="#1F638A" stroke-width="0.5" stroke-miterlimit="10"/>
</g>
<mask id="mask16_334_1220" style="mask-type:luminance" maskUnits="userSpaceOnUse" x="0" y="0" width="1456" height="1456">
<path d="M1455.9 0H0V1455.9H1455.9V0Z" fill="white"/>
</mask>
<g mask="url(#mask16_334_1220)">
<path d="M1069.5 217.8C1057.86 230.903 1042.13 237.891 1022.91 238.765C1023.2 280.112 1014.47 309.813 997.29 326.41C984.187 339.222 970.21 339.804 967.007 339.804C966.716 339.804 966.425 339.804 966.425 339.804C949.536 339.513 935.851 333.69 925.951 322.042C907.315 300.495 907.315 264.971 908.48 248.665C897.124 246.044 888.68 235.853 888.68 223.624C888.68 209.356 900.327 198 914.304 198C928.571 198 939.927 209.647 939.927 223.624C939.927 236.436 930.61 246.918 918.671 248.956C917.798 263.515 917.506 296.419 933.813 315.345C941.674 324.663 952.739 329.322 966.716 329.613C967.298 329.613 978.945 329.904 990.301 318.839C1000.78 308.648 1013.01 286.518 1012.72 238.765C993.504 237.891 978.072 230.903 966.134 217.8C934.395 182.858 941.383 117.343 941.674 114.722C942.839 103.658 947.207 95.2133 954.778 90.2632C961.475 85.6043 969.628 84.1485 975.451 84.1485C976.616 80.9455 979.528 78.9072 983.022 78.9072H986.807C991.466 78.9072 994.96 82.6925 994.96 87.3514C994.96 92.0103 991.175 95.5045 986.807 95.5045H983.022C979.237 95.5045 976.034 92.8839 975.16 89.3897C969.919 89.3897 963.222 90.5544 957.689 94.3398C951.575 98.7075 948.08 105.696 946.916 115.305C946.916 115.887 939.927 181.111 969.919 214.306C981.566 227.409 997.872 233.815 1017.67 233.524C1017.96 233.524 1018.25 233.524 1018.55 233.524C1038.05 233.524 1053.78 227.118 1065.43 214.306C1095.42 181.111 1088.72 115.887 1088.43 115.305C1087.26 105.696 1083.77 98.7075 1077.66 94.3398C1073 90.8456 1067.17 89.6809 1062.51 89.3897C1061.93 93.1751 1058.44 96.0868 1054.36 96.0868H1050.58C1045.92 96.0868 1042.42 92.3015 1042.42 87.9338C1042.42 83.2749 1046.21 79.4896 1050.58 79.4896H1054.36C1057.56 79.4896 1060.48 81.5279 1061.64 84.1485C1067.46 84.4397 1074.45 85.8955 1080.57 90.2632C1087.85 95.5045 1092.21 103.658 1093.67 114.722C1094.25 117.634 1101.24 182.858 1069.5 217.8Z" fill="white"/>
<path d="M893.338 209.36C893.338 209.36 889.553 239.934 925.077 247.214C925.077 247.214 903.821 253.62 894.794 241.099C883.438 225.666 893.338 209.36 893.338 209.36Z" fill="#FFEB78"/>
<path d="M908.482 248.958C908.482 248.958 907.9 356.695 991.76 331.071C991.76 331.071 957.983 356.403 925.953 322.044C925.953 322.335 903.823 299.041 908.482 248.958Z" fill="#FFEB78"/>
<path d="M1069.5 217.802C1057.86 230.905 1042.13 237.894 1022.91 238.767C1023.2 280.115 1014.47 309.815 997.29 326.412C984.187 339.224 970.21 339.807 967.007 339.807C966.716 339.807 966.425 339.807 966.425 339.807C949.536 339.515 935.851 333.692 925.951 322.045C907.315 300.497 907.315 264.973 908.48 248.667C897.124 246.047 888.68 235.855 888.68 223.626C888.68 209.358 900.327 198.002 914.304 198.002C928.571 198.002 939.927 209.649 939.927 223.626C939.927 236.438 930.61 246.92 918.671 248.958C917.798 263.517 917.506 296.421 933.813 315.347C941.674 324.665 952.739 329.324 966.716 329.615C967.298 329.615 978.945 329.906 990.301 318.55C1000.78 308.359 1013.01 286.229 1012.72 238.476C993.504 237.602 978.072 230.614 966.134 217.511C934.395 182.569 941.383 117.054 941.674 114.433C942.839 103.368 947.207 94.9243 954.778 89.9742C961.475 85.3153 969.628 83.8594 975.451 83.8594C976.616 80.6564 979.528 78.6182 983.022 78.6182H986.807C991.466 78.6182 994.96 82.4035 994.96 87.0624C994.96 91.7213 991.175 95.2155 986.807 95.2155H983.022C979.237 95.2155 976.034 92.5948 975.16 89.1007C969.919 89.1007 963.222 90.2654 957.689 94.3419C951.575 98.7096 948.08 105.698 946.916 115.307C946.916 115.889 939.927 181.113 969.919 214.308C981.566 227.411 997.872 233.817 1017.67 233.526C1017.96 233.526 1018.25 233.526 1018.55 233.526C1038.05 233.526 1053.78 227.12 1065.43 214.308C1095.42 181.113 1088.72 115.889 1088.43 115.307C1087.26 105.698 1083.77 98.7096 1077.66 94.3419C1073 90.8477 1067.17 89.683 1062.51 89.3919C1061.93 93.1772 1058.44 96.089 1054.36 96.089H1050.58C1045.92 96.089 1042.42 92.3037 1042.42 87.936C1042.42 83.2771 1046.21 79.4917 1050.58 79.4917H1054.36C1057.56 79.4917 1060.48 81.53 1061.64 84.1506C1067.46 84.4418 1074.45 85.8977 1080.57 90.2654C1087.85 95.5066 1092.21 103.66 1093.67 114.724C1094.25 117.636 1101.24 182.861 1069.5 217.802Z" stroke="#1F638A" stroke-width="0.5" stroke-miterlimit="10"/>
<path d="M908.48 248.958L918.672 249.249" stroke="#1F638A" stroke-width="0.5" stroke-miterlimit="10"/>
<path d="M930.32 222.753C930.32 231.197 923.332 238.185 914.888 238.185C906.443 238.185 899.455 231.197 899.455 222.753C899.455 214.309 906.443 207.32 914.888 207.32C923.623 207.32 930.32 214.309 930.32 222.753Z" stroke="#1F638A" stroke-width="0.5" stroke-miterlimit="10"/>
<path d="M975.453 84.1514L975.162 89.1014" stroke="#1F638A" stroke-width="0.5" stroke-miterlimit="10"/>
<path d="M1061.93 84.1514L1062.81 89.3926" stroke="#1F638A" stroke-width="0.5" stroke-miterlimit="10"/>
</g>
<mask id="mask17_334_1220" style="mask-type:luminance" maskUnits="userSpaceOnUse" x="0" y="0" width="1456" height="1456">
<path d="M1455.9 0H0V1455.9H1455.9V0Z" fill="white"/>
</mask>
<g mask="url(#mask17_334_1220)">
<path d="M1370.58 224.497C1370.58 234.397 1364.18 242.55 1356.02 242.55H1303.32V295.254C1303.32 303.407 1295.17 309.813 1285.27 309.813C1280.32 309.813 1275.66 308.066 1272.46 305.445C1269.25 302.825 1267.21 299.039 1267.21 295.254V242.55H1214.51C1210.43 242.55 1206.94 240.512 1204.32 237.309C1201.7 234.106 1199.95 229.447 1199.95 224.497C1199.95 214.597 1206.36 206.444 1214.51 206.444H1267.21V153.741C1267.21 145.588 1275.37 139.182 1285.27 139.182C1290.22 139.182 1294.88 140.929 1298.08 143.549C1301.28 146.17 1303.32 149.955 1303.32 153.741V206.444H1356.02C1360.1 206.444 1363.6 208.482 1366.22 211.685C1368.84 214.888 1370.58 219.547 1370.58 224.497Z" fill="white"/>
<path d="M1204.03 237.312H1276.24V307.777C1276.24 307.777 1265.76 304.574 1267.22 287.977V242.553H1220.63C1220.34 242.844 1210.14 244.882 1204.03 237.312Z" fill="#D1EDFB"/>
<path d="M1266.92 206.446H1275.95V141.222C1275.95 141.222 1266.92 145.298 1266.92 153.742V206.446Z" fill="#D1EDFB"/>
<path d="M1370.58 224.497C1370.58 234.397 1364.18 242.55 1356.02 242.55H1303.32V295.254C1303.32 303.407 1295.17 309.813 1285.27 309.813C1280.32 309.813 1275.66 308.066 1272.46 305.445C1269.25 302.825 1267.21 299.039 1267.21 295.254V242.55H1214.51C1210.43 242.55 1206.94 240.512 1204.32 237.309C1201.7 234.106 1199.95 229.447 1199.95 224.497C1199.95 214.597 1206.36 206.444 1214.51 206.444H1267.21V153.741C1267.21 145.588 1275.37 139.182 1285.27 139.182C1290.22 139.182 1294.88 140.929 1298.08 143.549C1301.28 146.17 1303.32 149.955 1303.32 153.741V206.444H1356.02C1360.1 206.444 1363.6 208.482 1366.22 211.685C1368.84 214.888 1370.58 219.547 1370.58 224.497Z" stroke="#1F638A" stroke-width="0.5" stroke-miterlimit="10"/>
</g>
<mask id="mask18_334_1220" style="mask-type:luminance" maskUnits="userSpaceOnUse" x="0" y="0" width="1456" height="1456">
<path d="M1455.9 0H0V1455.9H1455.9V0Z" fill="white"/>
</mask>
<g mask="url(#mask18_334_1220)">
<path d="M811.809 310.98C816.468 328.742 805.986 346.795 788.515 351.454C771.044 356.113 752.991 345.63 748.041 328.159C744.547 314.765 749.788 300.789 760.562 292.927L715.72 124.916C714.264 119.384 718.049 113.269 724.455 111.522C727.658 110.648 730.861 110.939 733.482 112.395C736.103 113.56 738.141 115.889 738.723 118.801L783.565 286.812C796.668 287.977 808.024 297.294 811.809 310.98Z" fill="white"/>
<path d="M724.455 111.522C720.669 112.978 714.263 119.093 715.719 124.917L760.561 292.928C749.787 300.789 744.546 314.475 748.04 328.16C752.699 345.922 770.752 356.405 788.514 351.455C806.276 346.796 816.759 328.743 811.809 310.981C811.517 309.816 811.226 308.942 810.644 307.778C810.644 307.778 808.023 336.605 785.894 342.428C785.894 342.428 763.182 347.961 755.611 326.122C755.611 326.122 752.408 300.789 768.132 298.46L723.581 124.917C723.581 125.208 722.416 121.131 724.455 111.522Z" fill="#D1EDFB"/>
<path d="M779.489 273.126L768.424 276.038" stroke="#1F638A" stroke-width="0.5" stroke-miterlimit="10"/>
<path d="M741.635 130.449L730.279 133.361" stroke="#1F638A" stroke-width="0.5" stroke-miterlimit="10"/>
<path d="M747.75 154.326L736.686 157.238" stroke="#1F638A" stroke-width="0.5" stroke-miterlimit="10"/>
<path d="M754.155 177.911L743.09 181.114" stroke="#1F638A" stroke-width="0.5" stroke-miterlimit="10"/>
<path d="M760.56 201.788L749.204 204.7" stroke="#1F638A" stroke-width="0.5" stroke-miterlimit="10"/>
<path d="M766.967 225.665L755.611 228.577" stroke="#1F638A" stroke-width="0.5" stroke-miterlimit="10"/>
<path d="M773.082 249.249L762.018 252.161" stroke="#1F638A" stroke-width="0.5" stroke-miterlimit="10"/>
<path d="M811.809 310.98C816.468 328.742 805.986 346.795 788.515 351.454C771.044 356.113 752.991 345.63 748.041 328.159C744.547 314.765 749.788 300.789 760.562 292.927L715.72 124.916C714.264 119.384 718.049 113.269 724.455 111.522C727.658 110.648 730.861 110.939 733.482 112.395C736.103 113.56 738.141 115.889 738.723 118.801L783.565 286.812C796.668 287.977 808.315 297.294 811.809 310.98Z" stroke="#1F638A" stroke-width="0.5" stroke-miterlimit="10"/>
</g>
<mask id="mask19_334_1220" style="mask-type:luminance" maskUnits="userSpaceOnUse" x="0" y="0" width="1456" height="1456">
<path d="M1455.9 0H0V1455.9H1455.9V0Z" fill="white"/>
</mask>
<g mask="url(#mask19_334_1220)">
<path d="M648.165 77.1636C648.165 86.4813 640.595 94.052 631.277 94.052H548.582C539.264 94.052 531.693 86.4813 531.693 77.1636V60.2752C531.693 50.9574 539.264 43.3867 548.582 43.3867H631.277C640.595 43.3867 648.165 50.9574 648.165 60.2752V77.1636Z" fill="white"/>
<path d="M595.172 43.3867H584.689V93.7608H595.172V43.3867Z" fill="#FFEB78"/>
<path d="M531.984 68.7188C531.984 68.7188 531.984 101.331 646.126 85.0248C646.126 85.0248 643.506 95.7985 620.211 94.0514H548.872C548.581 94.0514 531.11 97.2544 531.984 68.7188Z" fill="#FFEB78"/>
<path d="M595.17 43.3867V94.052" stroke="#1F638A" stroke-width="0.5" stroke-miterlimit="10"/>
<path d="M584.689 43.3867V94.052" stroke="#1F638A" stroke-width="0.5" stroke-miterlimit="10"/>
<path d="M648.165 77.1636C648.165 86.4813 640.595 94.052 631.277 94.052H548.582C539.264 94.052 531.693 86.4813 531.693 77.1636V60.2752C531.693 50.9574 539.264 43.3867 548.582 43.3867H631.277C640.595 43.3867 648.165 50.9574 648.165 60.2752V77.1636Z" stroke="#1F638A" stroke-width="0.5" stroke-miterlimit="10"/>
</g>
<mask id="mask20_334_1220" style="mask-type:luminance" maskUnits="userSpaceOnUse" x="0" y="0" width="1456" height="1456">
<path d="M1455.9 0H0V1455.9H1455.9V0Z" fill="white"/>
</mask>
<g mask="url(#mask20_334_1220)">
<path d="M270.507 34.0682C261.481 52.1213 223.918 51.539 186.356 32.6123C148.794 13.9768 125.791 -16.0148 134.817 -33.7767C143.844 -51.8299 181.406 -51.2475 218.968 -32.3208C256.239 -13.6853 279.242 16.015 270.507 34.0682Z" fill="white"/>
<path d="M134.816 -33.7744C134.816 -33.7744 161.313 30.8675 261.188 42.8059C261.188 42.8059 232.361 58.2384 175.873 27.3734C175.873 27.3734 122.878 -5.23879 134.816 -33.7744Z" fill="#D1EDFB"/>
<path d="M179.66 29.1187L212.272 -35.8145C212.272 -35.8145 219.552 -32.3203 224.211 -29.6997L191.599 35.2334L179.66 29.1187Z" fill="#D1EDFB"/>
<path d="M179.66 29.1187L212.272 -35.8145" stroke="#1F638A" stroke-width="0.5" stroke-miterlimit="10"/>
<path d="M223.919 -29.7002L191.598 34.9417" stroke="#1F638A" stroke-width="0.5" stroke-miterlimit="10"/>
<path d="M270.507 34.0682C261.481 52.1213 223.918 51.539 186.356 32.6123C148.794 13.9768 125.791 -16.0148 134.817 -33.7767C143.844 -51.8299 181.406 -51.2475 218.968 -32.3208C256.239 -13.6853 279.242 16.015 270.507 34.0682Z" stroke="#1F638A" stroke-width="0.5" stroke-miterlimit="10"/>
</g>
<mask id="mask21_334_1220" style="mask-type:luminance" maskUnits="userSpaceOnUse" x="0" y="0" width="1456" height="1456">
<path d="M1455.9 0H0V1455.9H1455.9V0Z" fill="white"/>
</mask>
<g mask="url(#mask21_334_1220)">
<path d="M491.218 43.3874C490.927 43.6786 490.636 44.2609 490.636 44.8433C490.636 45.1345 490.344 45.1345 490.344 45.4256C490.053 45.7168 490.053 46.2992 489.762 46.5903C488.597 48.9198 486.559 51.8316 483.938 55.6169C483.647 55.9081 483.647 56.1993 483.356 56.4905C469.379 74.8348 436.476 104.826 368.34 106.282C312.433 38.7285 330.195 -15.4309 334.854 -27.0781C335.437 -28.534 335.728 -29.4076 335.728 -29.4076C346.793 -53.5755 373.872 -65.2227 395.711 -55.0314C413.764 -46.8784 416.967 -13.975 413.764 6.40754C413.764 6.69872 413.764 6.98992 413.764 6.98992C413.764 6.69874 414.055 6.69872 414.346 6.40754C427.741 -8.15145 453.656 -26.2046 470.835 -18.3427C492.383 -8.44263 501.409 18.0547 491.8 41.6403C491.509 42.2227 491.509 42.805 491.218 43.3874Z" fill="white"/>
<path d="M334.564 -27.0771C334.564 -27.0771 328.74 78.0388 396.585 103.663C396.585 103.663 374.164 106.283 368.049 106.283C368.049 106.283 309.522 39.603 334.564 -27.0771Z" fill="#D1EDFB"/>
<path d="M473.458 67.2658L430.946 48.0479L430.654 23.2976L390.471 70.7599L397.169 27.3742L368.633 47.4656L368.924 19.5123L328.45 1.16797" stroke="#1F638A" stroke-width="0.5" stroke-miterlimit="10"/>
<path d="M491.218 43.3874C490.927 43.6786 490.636 44.2609 490.636 44.8433C490.636 45.1345 490.344 45.1345 490.344 45.4256C490.053 45.7168 490.053 46.2992 489.762 46.5903C488.597 48.9198 486.559 51.8316 483.938 55.6169C483.647 55.9081 483.647 56.1993 483.356 56.4905C469.379 74.8348 436.476 104.826 368.34 106.282C312.433 38.7285 330.195 -15.4309 334.854 -27.0781C335.437 -28.534 335.728 -29.4076 335.728 -29.4076C346.793 -53.5755 373.872 -65.2227 395.711 -55.0314C413.764 -46.8784 416.967 -13.975 413.764 6.40754C413.764 6.69872 413.764 6.98992 413.764 6.98992C413.764 6.69874 414.055 6.69872 414.346 6.40754C427.741 -8.15145 453.656 -26.2046 470.835 -18.3427C492.383 -8.44263 501.409 18.0547 491.8 41.6403C491.509 42.2227 491.509 42.805 491.218 43.3874Z" stroke="#1F638A" stroke-width="0.5" stroke-miterlimit="10"/>
</g>
<mask id="mask22_334_1220" style="mask-type:luminance" maskUnits="userSpaceOnUse" x="0" y="0" width="1456" height="1456">
<path d="M1455.9 0H0V1455.9H1455.9V0Z" fill="white"/>
</mask>
<g mask="url(#mask22_334_1220)">
<path d="M127.537 -229.448L159.566 -204.407L156.072 -200.33L143.843 -209.648L81.2391 -130.156L98.4187 -116.47L96.6716 -114.432L90.2657 -119.673L-13.1032 12.2311L-20.6738 6.40745L-29.9916 18.3458L-35.524 14.2693L-108.901 108.029L-112.396 105.409L-38.727 11.6487L-43.9682 7.57218L-34.6505 -4.65737L-41.93 -10.481L61.4389 -142.094L55.0329 -147.336L56.78 -149.374L73.6684 -135.98L136.272 -215.763L124.334 -225.081L127.537 -229.448Z" fill="white"/>
<path d="M152.58 -209.939L159.568 -204.407L156.074 -200.33L143.844 -209.648L81.2407 -130.156L98.4203 -116.471L96.6732 -114.432L90.2672 -119.674L-13.1016 12.231L-20.6723 6.40736L-29.9901 18.3457L-35.5225 14.2692L-22.4194 -2.03686L-13.3928 1.45732L87.0643 -122.003L77.4553 -129.574L142.388 -211.978L152.58 -209.939Z" fill="#FFEB78"/>
<path d="M-108.901 108.029L-35.524 14.2693L-29.9916 18.3458L-20.6738 6.40745L-13.1032 12.2311L90.2657 -119.673L96.6716 -114.432L98.4187 -116.47L81.2391 -130.156L138.019 -202.077L143.843 -209.648L156.072 -200.33L159.566 -204.407L127.537 -229.448L124.334 -225.081L136.272 -215.763L110.066 -182.277L73.6684 -135.98L56.78 -149.374L55.0329 -147.336L61.4389 -142.094L52.9946 -131.612L-41.93 -10.481L-34.6505 -4.65737L-43.9682 7.57218L-38.727 11.6487L-112.396 105.409L-108.901 108.029Z" stroke="#1F638A" stroke-width="0.5" stroke-miterlimit="10"/>
</g>
<mask id="mask23_334_1220" style="mask-type:luminance" maskUnits="userSpaceOnUse" x="0" y="0" width="1456" height="1456">
<path d="M1455.9 0H0V1455.9H1455.9V0Z" fill="white"/>
</mask>
<g mask="url(#mask23_334_1220)">
<path d="M69.3035 69.2988C75.7094 82.4019 69.8858 98.1256 56.7828 104.532C43.6797 110.938 27.956 105.114 21.55 92.0108C15.1441 78.9077 20.9676 63.184 34.0707 56.778C47.1738 50.6633 62.8975 56.1957 69.3035 69.2988Z" fill="white"/>
<path d="M70.7573 88.2254C68.719 94.6313 63.7689 101.328 56.7806 104.531C43.6775 110.937 27.9539 105.114 21.5479 92.0107C18.3449 85.3136 18.3449 78.3253 20.3831 71.9193C20.3831 71.9193 23.295 95.5049 43.0952 99.2902C43.0952 99.2902 47.754 101.037 54.4512 99.2902L41.3481 64.3486L57.363 98.1255C61.7307 96.6696 66.0984 93.7578 70.7573 88.2254Z" fill="#FFEB78"/>
<path d="M31.1572 58.5254L53.8693 105.988" stroke="#1F638A" stroke-width="0.5" stroke-miterlimit="10"/>
<path d="M56.4933 56.7786C61.7345 59.3993 66.3934 63.4758 69.3052 69.2994C75.1288 81.5289 70.7611 96.0879 59.6962 103.076L37.2754 56.1963" stroke="#1F638A" stroke-width="0.5" stroke-miterlimit="10"/>
<path d="M69.3035 69.2988C75.7094 82.4019 69.8858 98.1256 56.7828 104.532C43.6797 110.938 27.956 105.114 21.55 92.0108C15.1441 78.9077 20.9676 63.184 34.0707 56.778C47.1738 50.6633 62.8975 56.1957 69.3035 69.2988Z" stroke="#1F638A" stroke-width="0.5" stroke-miterlimit="10"/>
</g>
<mask id="mask24_334_1220" style="mask-type:luminance" maskUnits="userSpaceOnUse" x="0" y="0" width="1456" height="1456">
<path d="M1455.9 0H0V1455.9H1455.9V0Z" fill="white"/>
</mask>
<g mask="url(#mask24_334_1220)">
<path d="M420.754 317.386C421.045 338.06 404.448 355.239 383.774 355.531C363.101 355.822 345.921 339.224 345.63 318.551C345.339 297.877 361.936 280.697 382.61 280.406C403.283 280.115 420.463 296.712 420.754 317.386Z" fill="white"/>
<path d="M411.437 342.719C404.739 349.999 394.839 355.531 383.774 355.531C363.101 355.822 345.921 339.225 345.63 318.551C345.339 308.069 349.415 298.751 356.404 291.763C356.404 291.763 346.212 324.084 369.507 340.972C369.507 340.972 374.457 345.922 384.066 347.669L387.851 294.674L388.725 347.96C394.548 348.252 402.41 347.087 411.437 342.719Z" fill="#FFEB78"/>
<path d="M377.659 280.406L378.824 355.822" stroke="#1F638A" stroke-width="0.5" stroke-miterlimit="10"/>
<path d="M411.728 293.802C417.26 300.208 420.463 308.652 420.754 317.679C421.046 336.897 406.778 352.911 388.142 355.532L386.978 281.281" stroke="#1F638A" stroke-width="0.5" stroke-miterlimit="10"/>
<path d="M420.754 317.386C421.045 338.06 404.448 355.239 383.774 355.531C363.101 355.822 345.921 339.224 345.63 318.551C345.339 297.877 361.936 280.697 382.61 280.406C403.283 280.115 420.463 296.712 420.754 317.386Z" stroke="#1F638A" stroke-width="0.5" stroke-miterlimit="10"/>
</g>
<mask id="mask25_334_1220" style="mask-type:luminance" maskUnits="userSpaceOnUse" x="0" y="0" width="1456" height="1456">
<path d="M1455.9 0H0V1455.9H1455.9V0Z" fill="white"/>
</mask>
<g mask="url(#mask25_334_1220)">
<path d="M297.003 236.437C285.356 249.54 269.632 256.528 250.415 257.402C250.706 298.749 241.97 328.45 224.791 345.047C211.688 357.859 197.711 358.441 194.508 358.441C194.217 358.441 193.926 358.441 193.926 358.441C177.037 358.15 163.352 352.326 153.452 340.679C134.816 319.132 134.816 283.608 135.981 267.302C124.625 264.681 116.181 254.49 116.181 242.26C116.181 227.993 127.828 216.637 141.804 216.637C156.072 216.637 167.428 228.284 167.428 242.26C167.428 255.072 158.111 265.555 146.172 267.593C145.299 282.152 145.007 315.055 161.314 333.982C169.175 343.3 180.24 347.959 194.217 348.25C194.799 348.25 206.446 348.541 217.802 337.476C228.285 327.285 240.514 305.155 240.223 257.402C221.005 256.528 205.573 249.54 193.634 236.437C161.896 201.495 168.884 135.98 169.175 133.359C170.34 122.294 174.708 113.85 182.278 108.9C188.976 104.241 197.129 102.785 202.952 102.785C204.117 99.5822 207.029 97.5439 210.523 97.5439H214.308C218.967 97.5439 222.461 101.329 222.461 105.988C222.461 110.647 218.676 114.141 214.308 114.141H210.523C206.738 114.141 203.535 111.521 202.661 108.026C197.42 108.026 190.723 109.191 185.19 112.976C179.076 117.344 175.581 124.332 174.417 133.941C174.417 134.524 167.428 199.748 197.42 232.943C209.067 246.046 225.373 252.452 245.173 252.16C245.465 252.16 245.756 252.16 246.047 252.16C265.556 252.16 281.28 245.755 292.927 232.943C322.918 199.748 316.221 134.524 315.93 133.941C314.765 124.332 311.271 117.344 305.156 112.976C300.498 109.482 294.674 108.318 290.015 108.026C289.433 111.812 285.939 114.724 281.862 114.724H278.077C273.418 114.724 269.924 110.938 269.924 106.571C269.924 101.912 273.709 98.1263 278.077 98.1263H281.862C285.065 98.1263 287.977 100.165 289.142 102.785C294.965 103.076 301.953 104.532 308.068 108.9C315.348 114.141 319.715 122.294 321.171 133.359C321.754 135.98 328.742 201.495 297.003 236.437Z" fill="white"/>
<path d="M120.84 227.997C120.84 227.997 117.055 258.571 152.579 265.85C152.579 265.85 131.323 272.256 122.296 259.736C110.94 244.303 120.84 227.997 120.84 227.997Z" fill="#FFEB78"/>
<path d="M135.983 267.595C135.983 267.595 135.401 375.331 219.261 349.707C219.261 349.707 185.484 375.04 153.454 340.681C153.454 340.972 131.324 317.386 135.983 267.595Z" fill="#FFEB78"/>
<path d="M297.003 236.44C285.356 249.543 269.632 256.531 250.415 257.405C250.706 298.752 241.97 328.453 224.791 345.05C211.688 357.862 197.711 358.444 194.508 358.444C194.217 358.444 193.926 358.444 193.926 358.444C177.037 358.153 163.352 352.329 153.452 340.682C134.816 319.135 134.816 283.611 135.981 267.305C124.625 264.684 116.181 254.493 116.181 242.263C116.181 227.996 127.828 216.64 141.804 216.64C156.072 216.64 167.428 228.287 167.428 242.263C167.428 255.075 158.111 265.558 146.172 267.596C145.299 282.155 145.007 315.058 161.314 333.985C169.175 343.303 180.24 347.962 194.217 348.253C194.799 348.253 206.446 348.544 217.802 337.188C228.285 326.997 240.514 304.867 240.223 257.114C221.005 256.24 205.573 249.252 193.634 236.149C161.896 201.207 168.884 135.692 169.175 133.071C170.34 122.006 174.708 113.562 182.278 108.612C188.976 103.953 197.129 102.497 202.952 102.497C204.117 99.2941 207.029 97.2559 210.523 97.2559H214.308C218.967 97.2559 222.461 101.041 222.461 105.7C222.461 110.359 218.676 113.853 214.308 113.853H210.523C206.738 113.853 203.535 111.232 202.661 107.738C197.42 107.738 190.723 108.903 185.19 112.98C179.076 117.347 175.581 124.336 174.417 133.944C174.417 134.527 167.428 199.751 197.42 232.946C209.067 246.049 225.373 252.455 245.173 252.164C245.465 252.164 245.756 252.164 246.047 252.164C265.556 252.164 281.28 245.758 292.927 232.946C322.918 199.751 316.221 134.527 315.93 133.944C314.765 124.336 311.271 117.347 305.156 112.98C300.498 109.485 294.674 108.321 290.015 108.03C289.433 111.815 285.939 114.727 281.862 114.727H278.077C273.418 114.727 269.924 110.941 269.924 106.574C269.924 101.915 273.709 98.1294 278.077 98.1294H281.862C285.065 98.1294 287.977 100.168 289.142 102.788C294.965 103.079 301.953 104.535 308.068 108.903C315.348 114.144 319.715 122.297 321.171 133.362C321.754 135.983 328.742 201.498 297.003 236.44Z" stroke="#1F638A" stroke-width="0.5" stroke-miterlimit="10"/>
<path d="M135.981 267.595L146.173 267.886" stroke="#1F638A" stroke-width="0.5" stroke-miterlimit="10"/>
<path d="M157.821 241.39C157.821 249.834 150.833 256.822 142.389 256.822C133.944 256.822 126.956 249.834 126.956 241.39C126.956 232.945 133.944 225.957 142.389 225.957C151.124 225.957 157.821 232.945 157.821 241.39Z" stroke="#1F638A" stroke-width="0.5" stroke-miterlimit="10"/>
<path d="M202.954 102.788L202.663 107.738" stroke="#1F638A" stroke-width="0.5" stroke-miterlimit="10"/>
<path d="M289.434 102.788L290.307 108.029" stroke="#1F638A" stroke-width="0.5" stroke-miterlimit="10"/>
</g>
<mask id="mask26_334_1220" style="mask-type:luminance" maskUnits="userSpaceOnUse" x="0" y="0" width="1456" height="1456">
<path d="M1455.9 0H0V1455.9H1455.9V0Z" fill="white"/>
</mask>
<g mask="url(#mask26_334_1220)">
<path d="M612.351 242.553C612.351 252.453 605.945 260.606 597.792 260.606H545.38V313.31C545.38 321.463 537.227 327.869 527.326 327.869C522.376 327.869 517.717 326.122 514.515 323.501C511.312 320.88 509.273 317.095 509.273 313.31V260.606H456.57C452.493 260.606 448.999 258.568 446.378 255.365C443.758 252.162 442.011 247.503 442.011 242.553C442.011 232.653 448.417 224.5 456.57 224.5H509.273V171.796C509.273 163.643 517.426 157.237 527.326 157.237C532.276 157.237 536.935 158.984 540.138 161.605C543.341 164.226 545.38 168.011 545.38 171.796V224.5H597.792C601.868 224.5 605.363 226.538 607.983 229.741C610.895 232.944 612.351 237.603 612.351 242.553Z" fill="white"/>
<path d="M446.089 255.365H518.01V325.831C518.01 325.831 507.528 322.628 508.984 306.031V260.606H462.395C462.395 260.606 451.912 262.936 446.089 255.365Z" fill="#D1EDFB"/>
<path d="M508.982 224.5H518.009V159.275C518.009 159.275 508.982 163.352 508.982 171.796V224.5Z" fill="#D1EDFB"/>
<path d="M612.351 242.553C612.351 252.453 605.945 260.606 597.792 260.606H545.38V313.31C545.38 321.463 537.227 327.869 527.326 327.869C522.376 327.869 517.717 326.122 514.515 323.501C511.312 320.88 509.273 317.095 509.273 313.31V260.606H456.57C452.493 260.606 448.999 258.568 446.378 255.365C443.758 252.162 442.011 247.503 442.011 242.553C442.011 232.653 448.417 224.5 456.57 224.5H509.273V171.796C509.273 163.643 517.426 157.237 527.326 157.237C532.276 157.237 536.935 158.984 540.138 161.605C543.341 164.226 545.38 168.011 545.38 171.796V224.5H597.792C601.868 224.5 605.363 226.538 607.983 229.741C610.895 232.944 612.351 237.603 612.351 242.553Z" stroke="#1F638A" stroke-width="0.5" stroke-miterlimit="10"/>
</g>
<mask id="mask27_334_1220" style="mask-type:luminance" maskUnits="userSpaceOnUse" x="0" y="0" width="1456" height="1456">
<path d="M1455.9 0H0V1455.9H1455.9V0Z" fill="white"/>
</mask>
<g mask="url(#mask27_334_1220)">
<path d="M32.6139 334.274C37.2728 352.036 26.7904 370.089 9.31956 374.748C-8.15123 379.407 -26.2044 368.924 -31.1544 351.453C-34.6486 338.059 -29.4073 324.083 -18.6337 316.221L-63.4754 148.21C-64.9313 142.677 -61.146 136.563 -54.74 134.816C-51.537 133.942 -48.334 134.233 -45.7134 135.689C-43.0928 136.854 -41.0545 139.183 -40.4722 142.095L4.36951 310.106C17.4726 311.562 28.8286 320.88 32.6139 334.274Z" fill="white"/>
<path d="M-54.7407 134.816C-58.526 136.272 -64.932 142.387 -63.4761 148.211L-18.6344 316.221C-29.408 324.083 -34.6493 337.769 -31.1551 351.454C-26.4962 369.216 -8.44309 379.699 9.31888 374.749C27.0809 370.09 37.5633 352.037 32.6133 334.275C32.3221 333.11 32.0309 332.236 31.4486 331.072C31.4486 331.072 28.8279 359.898 6.69828 365.722C6.69828 365.722 -16.0137 371.254 -23.5844 349.416C-23.5844 349.416 -26.7874 324.083 -11.0637 321.754L-55.6142 148.211C-55.6142 148.502 -56.779 144.717 -54.7407 134.816Z" fill="#D1EDFB"/>
<path d="M0.292565 296.42L-11.0635 299.332" stroke="#1F638A" stroke-width="0.5" stroke-miterlimit="10"/>
<path d="M32.6139 334.274C37.2728 352.036 26.7904 370.089 9.31956 374.748C-8.15123 379.407 -26.2044 368.924 -31.1544 351.453C-34.6486 338.059 -29.4073 324.083 -18.6337 316.221L-63.4754 148.21C-64.9313 142.677 -61.146 136.563 -54.74 134.816C-51.537 133.942 -48.334 134.233 -45.7134 135.689C-43.0928 136.854 -41.0545 139.183 -40.4722 142.095L4.36951 310.106C17.4726 311.562 28.8286 320.88 32.6139 334.274Z" stroke="#1F638A" stroke-width="0.5" stroke-miterlimit="10"/>
</g>
<mask id="mask28_334_1220" style="mask-type:luminance" maskUnits="userSpaceOnUse" x="0" y="0" width="1456" height="1456">
<path d="M1455.9 0H0V1455.9H1455.9V0Z" fill="white"/>
</mask>
<g mask="url(#mask28_334_1220)">
<path d="M752.41 1131.23C752.41 1143.46 742.51 1153.36 730.281 1153.36H621.671C609.441 1153.36 599.541 1143.46 599.541 1131.23V1109.1C599.541 1096.87 609.441 1086.97 621.671 1086.97H730.281C742.51 1086.97 752.41 1096.87 752.41 1109.1V1131.23Z" fill="white"/>
<path d="M682.815 1086.97H669.13V1153.36H682.815V1086.97Z" fill="#FFEB78"/>
<path d="M599.539 1120.17C599.539 1120.17 599.539 1162.97 749.788 1141.42C749.788 1141.42 746.294 1155.69 715.428 1153.07H621.377C621.669 1153.36 598.665 1157.73 599.539 1120.17Z" fill="#FFEB78"/>
<path d="M682.816 1086.97V1153.36" stroke="#1F638A" stroke-width="0.5" stroke-miterlimit="10"/>
<path d="M669.13 1086.97V1153.36" stroke="#1F638A" stroke-width="0.5" stroke-miterlimit="10"/>
<path d="M752.41 1131.23C752.41 1143.46 742.51 1153.36 730.281 1153.36H621.671C609.441 1153.36 599.541 1143.46 599.541 1131.23V1109.1C599.541 1096.87 609.441 1086.97 621.671 1086.97H730.281C742.51 1086.97 752.41 1096.87 752.41 1109.1V1131.23Z" stroke="#1F638A" stroke-width="0.5" stroke-miterlimit="10"/>
</g>
<mask id="mask29_334_1220" style="mask-type:luminance" maskUnits="userSpaceOnUse" x="0" y="0" width="1456" height="1456">
<path d="M1455.9 0H0V1455.9H1455.9V0Z" fill="white"/>
</mask>
<g mask="url(#mask29_334_1220)">
<path d="M1031.36 1365.34C1031.36 1374.66 1023.79 1382.23 1014.47 1382.23H931.778C922.46 1382.23 914.89 1374.66 914.89 1365.34V1348.45C914.89 1339.14 922.46 1331.56 931.778 1331.56H1014.47C1023.79 1331.56 1031.36 1339.14 1031.36 1348.45V1365.34Z" fill="white"/>
<path d="M978.366 1331.56H967.884V1381.94H978.366V1331.56Z" fill="#FFEB78"/>
<path d="M914.889 1356.9C914.889 1356.9 914.889 1389.51 1029.03 1373.2C1029.03 1373.2 1026.41 1383.98 1003.12 1382.23H931.778C931.778 1381.94 914.307 1385.14 914.889 1356.9Z" fill="#FFEB78"/>
<path d="M978.365 1331.56V1381.94" stroke="#1F638A" stroke-width="0.5" stroke-miterlimit="10"/>
<path d="M967.884 1331.56V1381.94" stroke="#1F638A" stroke-width="0.5" stroke-miterlimit="10"/>
<path d="M1031.36 1365.34C1031.36 1374.66 1023.79 1382.23 1014.47 1382.23H931.778C922.46 1382.23 914.89 1374.66 914.89 1365.34V1348.45C914.89 1339.14 922.46 1331.56 931.778 1331.56H1014.47C1023.79 1331.56 1031.36 1339.14 1031.36 1348.45V1365.34Z" stroke="#1F638A" stroke-width="0.5" stroke-miterlimit="10"/>
</g>
<mask id="mask30_334_1220" style="mask-type:luminance" maskUnits="userSpaceOnUse" x="0" y="0" width="1456" height="1456">
<path d="M1455.9 0H0V1455.9H1455.9V0Z" fill="white"/>
</mask>
<g mask="url(#mask30_334_1220)">
<path d="M663.016 1303.61C653.989 1321.67 616.427 1321.08 578.865 1302.16C541.303 1283.52 518.299 1253.53 527.326 1235.77C536.353 1217.71 573.915 1218.3 611.477 1237.22C649.039 1255.86 672.042 1285.85 663.016 1303.61Z" fill="white"/>
<path d="M527.617 1235.77C527.617 1235.77 554.114 1300.41 653.989 1312.35C653.989 1312.35 625.162 1327.78 568.673 1296.92C568.673 1297.21 515.679 1264.3 527.617 1235.77Z" fill="#D1EDFB"/>
<path d="M572.457 1298.95L605.069 1234.02C605.069 1234.02 612.349 1237.51 617.008 1240.14L584.395 1305.07L572.457 1298.95Z" fill="#D1EDFB"/>
<path d="M572.457 1298.66L605.069 1233.73" stroke="#1F638A" stroke-width="0.5" stroke-miterlimit="10"/>
<path d="M616.718 1239.84L584.105 1304.78" stroke="#1F638A" stroke-width="0.5" stroke-miterlimit="10"/>
<path d="M663.016 1303.61C653.989 1321.67 616.427 1321.08 578.865 1302.16C541.303 1283.52 518.299 1253.53 527.326 1235.77C536.353 1217.71 573.915 1218.3 611.477 1237.22C649.039 1255.86 672.042 1285.85 663.016 1303.61Z" stroke="#1F638A" stroke-width="0.5" stroke-miterlimit="10"/>
</g>
<mask id="mask31_334_1220" style="mask-type:luminance" maskUnits="userSpaceOnUse" x="0" y="0" width="1456" height="1456">
<path d="M1455.9 0H0V1455.9H1455.9V0Z" fill="white"/>
</mask>
<g mask="url(#mask31_334_1220)">
<path d="M979.241 1222.37C973.708 1233.44 950.996 1232.86 927.993 1221.5C905.281 1210.14 891.304 1192.09 896.546 1181.03C902.078 1169.96 924.79 1170.54 947.793 1181.9C970.796 1193.26 984.773 1211.31 979.241 1222.37Z" fill="white"/>
<path d="M896.837 1181.02C896.837 1181.02 912.852 1220.33 973.709 1227.61C973.709 1227.61 956.238 1236.93 921.879 1218.3C921.879 1218.3 889.558 1198.5 896.837 1181.02Z" fill="#D1EDFB"/>
<path d="M924.209 1219.46L944.009 1179.86C944.009 1179.86 948.377 1181.9 951.289 1183.65L931.488 1223.25L924.209 1219.46Z" fill="#D1EDFB"/>
<path d="M924.209 1219.17L944.009 1179.86" stroke="#1F638A" stroke-width="0.5" stroke-miterlimit="10"/>
<path d="M950.996 1183.36L931.487 1222.96" stroke="#1F638A" stroke-width="0.5" stroke-miterlimit="10"/>
<path d="M979.241 1222.37C973.708 1233.44 950.996 1232.86 927.993 1221.5C905.281 1210.14 891.304 1192.09 896.546 1181.03C902.078 1169.96 924.79 1170.54 947.793 1181.9C970.796 1193.26 984.773 1211.31 979.241 1222.37Z" stroke="#1F638A" stroke-width="0.5" stroke-miterlimit="10"/>
</g>
<mask id="mask32_334_1220" style="mask-type:luminance" maskUnits="userSpaceOnUse" x="0" y="0" width="1456" height="1456">
<path d="M1455.9 0H0V1455.9H1455.9V0Z" fill="white"/>
</mask>
<g mask="url(#mask32_334_1220)">
<path d="M880.237 1302.74C879.945 1303.03 879.654 1303.61 879.654 1304.19C879.654 1304.49 879.363 1304.49 879.363 1304.78C879.072 1305.07 879.072 1305.65 878.781 1305.94C877.616 1308.27 875.578 1311.18 872.957 1314.97C872.666 1315.26 872.666 1315.55 872.375 1315.84C858.398 1334.19 825.495 1364.18 757.359 1365.63C701.452 1298.08 719.214 1243.92 723.873 1232.27C724.455 1230.82 724.746 1229.94 724.746 1229.94C735.811 1205.78 762.891 1194.13 784.73 1204.32C802.783 1212.47 805.986 1245.38 802.783 1265.76C802.783 1266.05 802.783 1266.34 802.783 1266.34C802.783 1266.05 803.074 1266.05 803.365 1265.76C816.759 1251.2 842.674 1233.15 859.854 1241.01C881.401 1250.91 890.428 1277.41 880.819 1300.99C880.528 1301.86 880.528 1302.45 880.237 1302.74Z" fill="white"/>
<path d="M723.582 1232.56C723.582 1232.56 717.759 1337.68 785.604 1363.3C785.604 1363.3 763.183 1365.92 757.068 1365.92C757.068 1365.63 698.541 1298.95 723.582 1232.56Z" fill="#D1EDFB"/>
<path d="M862.476 1326.91L819.964 1307.4L819.673 1282.94L779.199 1330.4L786.187 1286.72L757.36 1306.81L757.943 1279.15L717.469 1260.81" stroke="#1F638A" stroke-width="0.5" stroke-miterlimit="10"/>
<path d="M880.237 1302.74C879.945 1303.03 879.654 1303.61 879.654 1304.19C879.654 1304.49 879.363 1304.49 879.363 1304.78C879.072 1305.07 879.072 1305.65 878.781 1305.94C877.616 1308.27 875.578 1311.18 872.957 1314.97C872.666 1315.26 872.666 1315.55 872.375 1315.84C858.398 1334.19 825.495 1364.18 757.359 1365.63C701.452 1298.08 719.214 1243.92 723.873 1232.27C724.455 1230.82 724.746 1229.94 724.746 1229.94C735.811 1205.78 762.891 1194.13 784.73 1204.32C802.783 1212.47 805.986 1245.38 802.783 1265.76C802.783 1266.05 802.783 1266.34 802.783 1266.34C802.783 1266.05 803.074 1266.05 803.365 1265.76C816.759 1251.2 842.674 1233.15 859.854 1241.01C881.401 1250.91 890.428 1277.41 880.819 1300.99C880.528 1301.86 880.528 1302.45 880.237 1302.74Z" stroke="#1F638A" stroke-width="0.5" stroke-miterlimit="10"/>
</g>
<mask id="mask33_334_1220" style="mask-type:luminance" maskUnits="userSpaceOnUse" x="0" y="0" width="1456" height="1456">
<path d="M1455.9 0H0V1455.9H1455.9V0Z" fill="white"/>
</mask>
<g mask="url(#mask33_334_1220)">
<path d="M557.318 1022.33L589.057 1047.08L585.854 1051.45L573.624 1042.13L511.02 1121.62L528.2 1135.02L526.453 1137.35L520.047 1132.11L416.678 1264.01L409.107 1258.19L399.498 1270.13L394.257 1266.05L320.88 1359.81L317.386 1357.19L391.054 1263.43L385.813 1259.35L395.131 1247.12L387.851 1241.3L491.22 1109.69L484.814 1104.44L486.27 1102.41L503.45 1115.8L566.053 1036.02L554.115 1026.7L557.318 1022.33Z" fill="white"/>
<path d="M582.361 1041.84L589.058 1047.08L585.855 1051.45L573.626 1042.13L511.022 1121.62L528.202 1135.02L526.454 1137.35L520.048 1132.11L416.68 1264.01L409.109 1258.19L399.5 1270.13L394.259 1266.05L407.362 1249.74L416.388 1253.24L516.846 1129.78L507.237 1122.21L572.17 1039.8L582.361 1041.84Z" fill="#FFEB78"/>
<path d="M320.88 1359.81L394.257 1266.05L399.498 1270.13L409.107 1258.19L416.678 1264.01L520.047 1132.11L526.453 1137.35L528.2 1135.02L511.02 1121.62L567.8 1049.7L573.624 1042.13L585.854 1051.45L589.057 1047.08L557.318 1022.33L554.115 1026.7L566.053 1036.02L539.847 1069.5L503.45 1115.8L486.27 1102.41L484.814 1104.44L491.22 1109.69L482.776 1120.17L387.851 1241.3L395.131 1247.12L385.813 1259.35L391.054 1263.43L317.386 1357.19L320.88 1359.81Z" stroke="#1F638A" stroke-width="0.5" stroke-miterlimit="10"/>
<path d="M520.047 1132.11L491.22 1109.69" stroke="#1F638A" stroke-width="0.5" stroke-miterlimit="10"/>
<path d="M409.108 1258.19L402.119 1252.66L395.131 1247.12" stroke="#1F638A" stroke-width="0.5" stroke-miterlimit="10"/>
<path d="M398.043 1227.03L414.058 1239.55" stroke="#1F638A" stroke-width="0.5" stroke-miterlimit="10"/>
<path d="M416.387 1203.74L432.402 1216.26" stroke="#1F638A" stroke-width="0.5" stroke-miterlimit="10"/>
<path d="M402.411 1221.21L410.564 1227.61" stroke="#1F638A" stroke-width="0.5" stroke-miterlimit="10"/>
<path d="M407.068 1215.38L415.221 1221.79" stroke="#1F638A" stroke-width="0.5" stroke-miterlimit="10"/>
<path d="M411.729 1209.56L419.882 1215.68" stroke="#1F638A" stroke-width="0.5" stroke-miterlimit="10"/>
<path d="M421.044 1197.91L428.906 1204.03" stroke="#1F638A" stroke-width="0.5" stroke-miterlimit="10"/>
<path d="M425.412 1191.8L433.565 1198.21" stroke="#1F638A" stroke-width="0.5" stroke-miterlimit="10"/>
<path d="M430.073 1185.98L438.226 1192.38" stroke="#1F638A" stroke-width="0.5" stroke-miterlimit="10"/>
<path d="M439.392 1174.33L447.253 1180.74" stroke="#1F638A" stroke-width="0.5" stroke-miterlimit="10"/>
<path d="M443.759 1168.51L451.912 1174.91" stroke="#1F638A" stroke-width="0.5" stroke-miterlimit="10"/>
<path d="M448.416 1162.68L456.569 1169.09" stroke="#1F638A" stroke-width="0.5" stroke-miterlimit="10"/>
<path d="M457.734 1151.03L465.596 1157.44" stroke="#1F638A" stroke-width="0.5" stroke-miterlimit="10"/>
<path d="M462.394 1145.21L470.255 1151.62" stroke="#1F638A" stroke-width="0.5" stroke-miterlimit="10"/>
<path d="M466.76 1139.39L474.913 1145.5" stroke="#1F638A" stroke-width="0.5" stroke-miterlimit="10"/>
<path d="M434.73 1180.15L450.745 1192.96" stroke="#1F638A" stroke-width="0.5" stroke-miterlimit="10"/>
<path d="M453.075 1156.86L469.09 1169.38" stroke="#1F638A" stroke-width="0.5" stroke-miterlimit="10"/>
<path d="M471.421 1133.56L487.436 1146.08" stroke="#1F638A" stroke-width="0.5" stroke-miterlimit="10"/>
<path d="M394.256 1266.05L391.053 1263.43" stroke="#1F638A" stroke-width="0.5" stroke-miterlimit="10"/>
</g>
<mask id="mask34_334_1220" style="mask-type:luminance" maskUnits="userSpaceOnUse" x="0" y="0" width="1456" height="1456">
<path d="M1455.9 0H0V1455.9H1455.9V0Z" fill="white"/>
</mask>
<g mask="url(#mask34_334_1220)">
<path d="M465.597 1376.41C472.003 1389.51 466.18 1405.23 453.077 1411.64C439.974 1418.05 424.25 1412.22 417.844 1399.12C411.438 1386.02 417.262 1370.29 430.365 1363.89C443.468 1357.77 459.191 1363.3 465.597 1376.41Z" fill="white"/>
<path d="M467.051 1395.33C465.013 1401.74 460.063 1408.44 453.075 1411.64C439.971 1418.04 424.248 1412.22 417.842 1399.12C414.639 1392.42 414.639 1385.43 416.677 1379.03C416.677 1379.03 419.589 1402.61 439.389 1406.4C439.389 1406.4 444.048 1408.14 450.745 1406.4L437.642 1371.46L453.657 1405.23C458.025 1403.78 462.392 1400.57 467.051 1395.33Z" fill="#FFEB78"/>
<path d="M427.451 1365.63L450.163 1413.1" stroke="#1F638A" stroke-width="0.5" stroke-miterlimit="10"/>
<path d="M452.787 1363.89C458.028 1366.51 462.687 1370.58 465.599 1376.41C471.423 1388.64 467.055 1403.2 455.99 1410.18L433.569 1363.3" stroke="#1F638A" stroke-width="0.5" stroke-miterlimit="10"/>
<path d="M465.597 1376.41C472.003 1389.51 466.18 1405.23 453.077 1411.64C439.974 1418.05 424.25 1412.22 417.844 1399.12C411.438 1386.02 417.262 1370.29 430.365 1363.89C443.468 1357.77 459.191 1363.3 465.597 1376.41Z" stroke="#1F638A" stroke-width="0.5" stroke-miterlimit="10"/>
</g>
<mask id="mask35_334_1220" style="mask-type:luminance" maskUnits="userSpaceOnUse" x="0" y="0" width="1456" height="1456">
<path d="M1455.9 0H0V1455.9H1455.9V0Z" fill="white"/>
</mask>
<g mask="url(#mask35_334_1220)">
<path d="M330.49 1420.96C330.49 1430.28 322.919 1437.85 313.601 1437.85H230.906C221.588 1437.85 214.018 1430.28 214.018 1420.96V1404.07C214.018 1394.75 221.588 1387.18 230.906 1387.18H313.601C322.919 1387.18 330.49 1394.75 330.49 1404.07V1420.96Z" fill="white"/>
<path d="M277.494 1387.47H267.012V1437.85H277.494V1387.47Z" fill="#FFEB78"/>
<path d="M214.308 1412.52C214.308 1412.52 214.308 1445.13 328.451 1428.82C328.451 1428.82 325.83 1439.6 302.536 1437.85H230.905C230.905 1437.85 213.435 1441.05 214.308 1412.52Z" fill="#FFEB78"/>
<path d="M277.494 1387.47V1437.85" stroke="#1F638A" stroke-width="0.5" stroke-miterlimit="10"/>
<path d="M267.012 1387.47V1437.85" stroke="#1F638A" stroke-width="0.5" stroke-miterlimit="10"/>
<path d="M330.49 1420.96C330.49 1430.28 322.919 1437.85 313.601 1437.85H230.906C221.588 1437.85 214.018 1430.28 214.018 1420.96V1404.07C214.018 1394.75 221.588 1387.18 230.906 1387.18H313.601C322.919 1387.18 330.49 1394.75 330.49 1404.07V1420.96Z" stroke="#1F638A" stroke-width="0.5" stroke-miterlimit="10"/>
</g>
<mask id="mask36_334_1220" style="mask-type:luminance" maskUnits="userSpaceOnUse" x="0" y="0" width="1456" height="1456">
<path d="M1455.9 0H0V1455.9H1455.9V0Z" fill="white"/>
</mask>
<g mask="url(#mask36_334_1220)">
<path d="M249.538 1251.49C244.006 1262.56 221.294 1261.97 198.291 1250.62C175.579 1239.26 161.602 1221.21 166.843 1210.14C172.376 1199.08 195.088 1199.66 218.091 1211.02C240.803 1222.37 254.78 1240.43 249.538 1251.49Z" fill="white"/>
<path d="M166.842 1210.14C166.842 1210.14 182.857 1249.45 243.714 1256.73C243.714 1256.73 226.243 1266.05 191.884 1247.41C191.884 1247.41 159.563 1227.61 166.842 1210.14Z" fill="#D1EDFB"/>
<path d="M194.216 1248.58L214.016 1208.98C214.016 1208.98 218.384 1211.02 221.296 1212.77L201.495 1252.37L194.216 1248.58Z" fill="#D1EDFB"/>
<path d="M194.216 1248.29L214.016 1208.98" stroke="#1F638A" stroke-width="0.5" stroke-miterlimit="10"/>
<path d="M221.294 1212.76L201.494 1252.07" stroke="#1F638A" stroke-width="0.5" stroke-miterlimit="10"/>
<path d="M249.538 1251.49C244.006 1262.56 221.294 1261.97 198.291 1250.62C175.579 1239.26 161.602 1221.21 166.843 1210.14C172.376 1199.08 195.088 1199.66 218.091 1211.02C240.803 1222.37 254.78 1240.43 249.538 1251.49Z" stroke="#1F638A" stroke-width="0.5" stroke-miterlimit="10"/>
</g>
<mask id="mask37_334_1220" style="mask-type:luminance" maskUnits="userSpaceOnUse" x="0" y="0" width="1456" height="1456">
<path d="M1455.9 0H0V1455.9H1455.9V0Z" fill="white"/>
</mask>
<g mask="url(#mask37_334_1220)">
<path d="M162.77 1364.76C162.479 1365.05 162.187 1365.63 162.187 1366.22C162.187 1366.51 161.896 1366.51 161.896 1366.8C161.605 1367.09 161.605 1367.67 161.314 1367.96C160.149 1370.29 158.111 1373.2 155.49 1376.99C155.199 1377.28 155.199 1377.57 154.908 1377.86C140.931 1396.21 108.028 1426.2 39.8918 1427.66C-16.0148 1360.1 1.7472 1305.94 6.40608 1294.3C6.98844 1292.84 7.27963 1291.97 7.27963 1291.97C18.3445 1267.8 45.4242 1256.15 67.2627 1266.34C85.3159 1274.49 88.5188 1307.4 85.3158 1327.78C85.3158 1328.07 85.3158 1328.36 85.3158 1328.36C85.3158 1328.07 85.607 1328.07 85.8982 1327.78C99.2925 1313.22 125.208 1295.17 142.387 1303.03C163.934 1312.93 172.961 1339.43 163.352 1363.01C163.352 1363.89 163.061 1364.18 162.77 1364.76Z" fill="white"/>
<path d="M6.40566 1294.3C6.40566 1294.3 0.582069 1399.41 68.427 1425.04C68.427 1425.04 46.0061 1427.66 39.8913 1427.66C39.8913 1427.66 -18.927 1360.98 6.40566 1294.3Z" fill="#D1EDFB"/>
<path d="M145.299 1388.93L102.787 1369.42L102.204 1344.67L62.0213 1392.13L69.0096 1348.75L40.1828 1368.84L40.474 1341.17L0 1322.54" stroke="#1F638A" stroke-width="0.5" stroke-miterlimit="10"/>
<path d="M162.77 1364.76C162.479 1365.05 162.187 1365.63 162.187 1366.22C162.187 1366.51 161.896 1366.51 161.896 1366.8C161.605 1367.09 161.605 1367.67 161.314 1367.96C160.149 1370.29 158.111 1373.2 155.49 1376.99C155.199 1377.28 155.199 1377.57 154.908 1377.86C140.931 1396.21 108.028 1426.2 39.8918 1427.66C-16.0148 1360.1 1.7472 1305.94 6.40608 1294.3C6.98844 1292.84 7.27963 1291.97 7.27963 1291.97C18.3445 1267.8 45.4242 1256.15 67.2627 1266.34C85.3159 1274.49 88.5188 1307.4 85.3158 1327.78C85.3158 1328.07 85.3158 1328.36 85.3158 1328.36C85.3158 1328.07 85.607 1328.07 85.8982 1327.78C99.2925 1313.22 125.208 1295.17 142.387 1303.03C163.934 1312.93 172.961 1339.43 163.352 1363.01C163.352 1363.89 163.061 1364.18 162.77 1364.76Z" stroke="#1F638A" stroke-width="0.5" stroke-miterlimit="10"/>
</g>
<mask id="mask38_334_1220" style="mask-type:luminance" maskUnits="userSpaceOnUse" x="0" y="0" width="1456" height="1456">
<path d="M1455.9 0H0V1455.9H1455.9V0Z" fill="white"/>
</mask>
<g mask="url(#mask38_334_1220)">
<path d="M199.75 406.195L231.488 431.237L228.285 435.604L216.056 425.996L153.452 505.779L170.632 519.173L168.885 521.211L162.479 516.261L58.8185 647.875L51.539 642.051L41.9301 654.281L36.6889 649.913L-36.9796 743.673L-40.1826 741.052L33.1947 647.292L27.9535 643.216L37.5624 630.986L29.9917 625.163L133.652 493.549L127.246 488.599L128.702 486.27L145.881 499.664L208.485 420.172L196.255 410.563L199.75 406.195Z" fill="white"/>
<path d="M224.793 425.704L231.49 431.237L228.287 435.604L216.057 425.996L153.454 505.779L170.633 519.173L168.886 521.211L162.48 516.261L58.8201 647.875L51.5406 642.051L41.9317 654.281L36.6904 649.913L49.5023 633.607L58.8201 637.101L159.277 513.641L149.668 506.07L214.601 423.666L224.793 425.704Z" fill="#FFEB78"/>
<path d="M-36.9796 743.673L36.6889 649.913L41.9301 654.281L51.539 642.051L58.8185 647.875L162.479 516.261L168.885 521.211L170.632 519.173L153.452 505.779L209.941 433.566L216.056 425.996L228.285 435.604L231.488 431.237L199.75 406.195L196.255 410.563L208.485 420.172L182.279 453.658L145.881 499.664L128.702 486.27L127.246 488.599L133.652 493.549L125.208 504.032L29.9917 625.163L37.5624 630.986L27.9535 643.216L33.1947 647.292L-40.1826 741.052L-36.9796 743.673Z" stroke="#1F638A" stroke-width="0.5" stroke-miterlimit="10"/>
<path d="M162.478 516.262L133.651 493.55" stroke="#1F638A" stroke-width="0.5" stroke-miterlimit="10"/>
<path d="M51.5391 642.051L44.5508 636.519L37.5625 630.986" stroke="#1F638A" stroke-width="0.5" stroke-miterlimit="10"/>
<path d="M40.1816 610.895L56.4877 623.706" stroke="#1F638A" stroke-width="0.5" stroke-miterlimit="10"/>
<path d="M58.8184 587.601L74.8333 600.412" stroke="#1F638A" stroke-width="0.5" stroke-miterlimit="10"/>
<path d="M44.8428 605.071L52.9958 611.477" stroke="#1F638A" stroke-width="0.5" stroke-miterlimit="10"/>
<path d="M49.5 599.247L57.653 605.653" stroke="#1F638A" stroke-width="0.5" stroke-miterlimit="10"/>
<path d="M54.1611 593.424L62.023 599.83" stroke="#1F638A" stroke-width="0.5" stroke-miterlimit="10"/>
<path d="M63.1865 581.777L71.3396 588.183" stroke="#1F638A" stroke-width="0.5" stroke-miterlimit="10"/>
<path d="M67.8438 575.952L75.9968 582.358" stroke="#1F638A" stroke-width="0.5" stroke-miterlimit="10"/>
<path d="M72.5049 570.128L80.6579 576.534" stroke="#1F638A" stroke-width="0.5" stroke-miterlimit="10"/>
<path d="M81.5293 558.481L89.6823 564.596" stroke="#1F638A" stroke-width="0.5" stroke-miterlimit="10"/>
<path d="M86.1904 552.658L94.3435 558.773" stroke="#1F638A" stroke-width="0.5" stroke-miterlimit="10"/>
<path d="M90.8477 546.544L99.0007 552.95" stroke="#1F638A" stroke-width="0.5" stroke-miterlimit="10"/>
<path d="M100.166 534.896L108.028 541.302" stroke="#1F638A" stroke-width="0.5" stroke-miterlimit="10"/>
<path d="M104.534 529.073L112.687 535.479" stroke="#1F638A" stroke-width="0.5" stroke-miterlimit="10"/>
<path d="M109.191 523.25L117.344 529.656" stroke="#1F638A" stroke-width="0.5" stroke-miterlimit="10"/>
<path d="M77.1621 564.305L93.177 576.825" stroke="#1F638A" stroke-width="0.5" stroke-miterlimit="10"/>
<path d="M95.5068 540.721L111.522 553.533" stroke="#1F638A" stroke-width="0.5" stroke-miterlimit="10"/>
<path d="M113.853 517.427L129.867 530.239" stroke="#1F638A" stroke-width="0.5" stroke-miterlimit="10"/>
<path d="M36.6904 649.913L33.1963 647.292" stroke="#1F638A" stroke-width="0.5" stroke-miterlimit="10"/>
</g>
<mask id="mask39_334_1220" style="mask-type:luminance" maskUnits="userSpaceOnUse" x="0" y="0" width="1456" height="1456">
<path d="M1455.9 0H0V1455.9H1455.9V0Z" fill="white"/>
</mask>
<g mask="url(#mask39_334_1220)">
<path d="M143.553 759.689C149.958 772.792 144.135 788.516 131.032 794.922C117.929 801.328 102.205 795.505 95.799 782.401C89.3931 769.298 95.2166 753.575 108.32 747.169C121.423 741.054 137.147 746.586 143.553 759.689Z" fill="white"/>
<path d="M145.006 778.616C142.968 785.022 138.018 791.719 131.03 794.922C117.927 801.328 102.203 795.504 95.7969 782.401C92.5939 775.704 92.5939 768.716 94.6322 762.31C94.6322 762.31 97.544 785.896 117.344 789.681C117.344 789.681 122.003 791.428 128.7 789.681L115.597 754.739L131.612 788.516C135.98 787.06 140.347 784.148 145.006 778.616Z" fill="#FFEB78"/>
<path d="M105.406 748.916L128.118 796.378" stroke="#1F638A" stroke-width="0.5" stroke-miterlimit="10"/>
<path d="M130.742 747.17C135.984 749.791 140.642 753.867 143.554 759.691C149.378 771.921 145.01 786.48 133.945 793.468L111.524 746.588" stroke="#1F638A" stroke-width="0.5" stroke-miterlimit="10"/>
<path d="M143.553 759.689C149.958 772.792 144.135 788.516 131.032 794.922C117.929 801.328 102.205 795.505 95.799 782.401C89.3931 769.298 95.2166 753.575 108.32 747.169C121.423 741.054 137.147 746.586 143.553 759.689Z" stroke="#1F638A" stroke-width="0.5" stroke-miterlimit="10"/>
</g>
<mask id="mask40_334_1220" style="mask-type:luminance" maskUnits="userSpaceOnUse" x="0" y="0" width="1456" height="1456">
<path d="M1455.9 0H0V1455.9H1455.9V0Z" fill="white"/>
</mask>
<g mask="url(#mask40_334_1220)">
<path d="M424.831 1107.65C425.123 1128.32 408.525 1145.5 387.851 1145.79C367.178 1146.08 349.998 1129.49 349.707 1108.81C349.416 1088.14 366.013 1070.96 386.687 1070.67C407.652 1070.38 424.54 1086.97 424.831 1107.65Z" fill="white"/>
<path d="M415.806 1132.98C409.109 1140.26 399.208 1145.79 388.144 1145.79C367.47 1146.08 350.29 1129.49 349.999 1108.81C349.708 1098.33 353.784 1089.01 360.773 1082.03C360.773 1082.03 350.581 1114.35 373.876 1131.23C373.876 1131.23 378.826 1136.18 388.435 1137.93L392.22 1084.94L393.094 1138.22C398.917 1138.51 406.488 1137.06 415.806 1132.98Z" fill="#FFEB78"/>
<path d="M382.028 1070.67L383.193 1145.79" stroke="#1F638A" stroke-width="0.5" stroke-miterlimit="10"/>
<path d="M416.097 1083.77C421.629 1090.18 424.832 1098.62 425.124 1107.65C425.415 1126.87 411.147 1142.88 392.511 1145.5L391.347 1071.25" stroke="#1F638A" stroke-width="0.5" stroke-miterlimit="10"/>
<path d="M424.831 1107.65C425.123 1128.32 408.525 1145.5 387.851 1145.79C367.178 1146.08 349.998 1129.49 349.707 1108.81C349.416 1088.14 366.013 1070.96 386.687 1070.67C407.652 1070.38 424.54 1086.97 424.831 1107.65Z" stroke="#1F638A" stroke-width="0.5" stroke-miterlimit="10"/>
</g>
<mask id="mask41_334_1220" style="mask-type:luminance" maskUnits="userSpaceOnUse" x="0" y="0" width="1456" height="1456">
<path d="M1455.9 0H0V1455.9H1455.9V0Z" fill="white"/>
</mask>
<g mask="url(#mask41_334_1220)">
<path d="M326.995 1006.02C315.347 1019.13 299.624 1026.12 280.406 1026.99C280.697 1068.34 271.962 1098.04 254.782 1114.63C241.679 1127.45 227.702 1128.03 224.499 1128.03C224.208 1128.03 223.917 1128.03 223.917 1128.03C207.029 1127.74 193.343 1121.91 183.443 1110.27C164.807 1088.72 164.807 1053.2 165.972 1036.89C154.616 1034.27 146.172 1024.08 146.172 1011.85C146.172 997.58 157.819 986.224 171.796 986.224C186.064 986.224 197.42 997.872 197.42 1011.85C197.42 1024.66 188.102 1035.14 176.163 1037.18C175.29 1051.74 174.999 1084.64 191.305 1103.57C199.167 1112.89 210.231 1117.55 224.208 1117.84C224.79 1117.84 236.438 1118.13 247.794 1107.06C258.276 1096.87 270.506 1074.74 270.215 1026.99C250.997 1026.12 235.564 1019.13 223.626 1006.02C191.887 971.083 198.875 905.568 199.167 902.947C200.331 891.882 204.699 883.438 212.27 878.488C218.967 873.829 227.12 872.373 232.943 872.373C234.108 869.17 237.02 867.132 240.514 867.132H244.3C248.958 867.132 252.453 870.917 252.453 875.576C252.453 880.235 248.667 883.729 244.3 883.729H240.514C236.729 883.729 233.526 881.108 232.652 877.614C227.411 877.614 220.714 878.779 215.182 882.564C209.067 886.932 205.573 893.92 204.408 903.529C204.408 904.112 197.42 969.336 227.411 1002.53C239.058 1015.63 255.364 1022.04 275.165 1021.75C275.456 1021.75 275.747 1021.75 276.038 1021.75C295.547 1021.75 311.271 1015.34 322.918 1002.53C352.91 969.336 346.212 904.112 345.921 903.529C344.757 893.92 341.262 886.932 335.148 882.564C330.489 879.07 324.665 877.905 320.006 877.614C319.424 881.4 315.93 884.311 311.853 884.311H308.068C303.409 884.311 299.915 880.526 299.915 876.158C299.915 871.499 303.7 867.714 308.068 867.714H311.853C315.056 867.714 317.968 869.752 319.133 872.373C324.956 872.664 331.945 874.12 338.059 878.488C345.339 883.729 349.707 891.882 351.162 902.947C351.745 905.859 358.442 971.083 326.995 1006.02Z" fill="white"/>
<path d="M150.831 997.585C150.831 997.585 147.046 1028.16 182.57 1035.44C182.57 1035.44 161.314 1041.84 152.287 1029.32C140.931 1013.89 150.831 997.585 150.831 997.585Z" fill="#FFEB78"/>
<path d="M165.973 1037.18C165.973 1037.18 165.391 1144.92 249.251 1119.3C249.251 1119.3 215.474 1144.63 183.444 1110.27C183.444 1110.56 161.023 1087.27 165.973 1037.18Z" fill="#FFEB78"/>
<path d="M326.995 1006.03C315.347 1019.13 299.624 1026.12 280.406 1026.99C280.697 1068.34 271.962 1098.04 254.782 1114.64C241.679 1127.45 227.702 1128.03 224.499 1128.03C224.208 1128.03 223.917 1128.03 223.917 1128.03C207.029 1127.74 193.343 1121.92 183.443 1110.27C164.807 1088.72 164.807 1053.2 165.972 1036.89C154.616 1034.27 146.172 1024.08 146.172 1011.85C146.172 997.583 157.819 986.227 171.796 986.227C186.064 986.227 197.42 997.875 197.42 1011.85C197.42 1024.66 188.102 1035.15 176.163 1037.18C175.29 1051.74 174.999 1084.65 191.305 1103.57C199.167 1112.89 210.231 1117.55 224.208 1117.84C224.79 1117.84 236.438 1118.13 247.794 1106.78C258.276 1096.58 270.506 1074.45 270.215 1026.7C250.997 1025.83 235.564 1018.84 223.626 1005.74C191.887 970.795 198.875 905.279 199.167 902.659C200.331 891.594 204.699 883.15 212.27 878.2C218.967 873.541 227.12 872.085 232.943 872.085C234.108 868.882 237.02 866.844 240.514 866.844H244.3C248.958 866.844 252.453 870.629 252.453 875.288C252.453 879.947 248.667 883.441 244.3 883.441H240.514C236.729 883.441 233.526 880.82 232.652 877.326C227.411 877.326 220.714 878.491 215.182 882.567C209.067 886.935 205.573 893.923 204.408 903.532C204.408 904.115 197.42 969.339 227.411 1002.53C239.058 1015.64 255.364 1022.04 275.165 1021.75C275.456 1021.75 275.747 1021.75 276.038 1021.75C295.547 1021.75 311.271 1015.35 322.918 1002.53C352.91 969.339 346.212 904.115 345.921 903.532C344.757 893.923 341.262 886.935 335.148 882.567C330.489 879.073 324.665 877.909 320.006 877.617C319.424 881.403 315.93 884.315 311.853 884.315H308.068C303.409 884.315 299.915 880.529 299.915 876.161C299.915 871.503 303.7 867.717 308.068 867.717H311.853C315.056 867.717 317.968 869.756 319.133 872.376C324.956 872.667 331.945 874.123 338.059 878.491C345.339 883.732 349.707 891.885 351.162 902.95C351.745 905.862 358.442 971.086 326.995 1006.03Z" stroke="#1F638A" stroke-width="0.5" stroke-miterlimit="10"/>
<path d="M165.973 1037.18L176.164 1037.47" stroke="#1F638A" stroke-width="0.5" stroke-miterlimit="10"/>
<path d="M187.812 1010.98C187.812 1019.42 180.824 1026.41 172.38 1026.41C163.936 1026.41 156.947 1019.42 156.947 1010.98C156.947 1002.53 163.936 995.545 172.38 995.545C180.824 995.836 187.812 1002.53 187.812 1010.98Z" stroke="#1F638A" stroke-width="0.5" stroke-miterlimit="10"/>
<path d="M232.945 872.376L232.654 877.617" stroke="#1F638A" stroke-width="0.5" stroke-miterlimit="10"/>
<path d="M319.425 872.376L320.298 877.617" stroke="#1F638A" stroke-width="0.5" stroke-miterlimit="10"/>
</g>
<mask id="mask42_334_1220" style="mask-type:luminance" maskUnits="userSpaceOnUse" x="0" y="0" width="1456" height="1456">
<path d="M1455.9 0H0V1455.9H1455.9V0Z" fill="white"/>
</mask>
<g mask="url(#mask42_334_1220)">
<path d="M121.131 1088.14C125.789 1105.9 115.307 1123.95 97.8362 1128.61C80.3654 1133.27 62.3122 1122.79 57.3621 1105.32C53.868 1091.92 59.1092 1077.95 69.8829 1070.08L25.0412 902.074C23.5853 896.542 27.3706 890.427 33.7766 888.68C36.9796 887.806 40.1825 888.097 42.8031 889.553C45.4238 890.718 47.462 893.048 48.0444 895.959L92.8861 1063.97C106.28 1065.13 117.636 1074.45 121.131 1088.14Z" fill="white"/>
<path d="M34.0659 888.681C30.2806 890.137 23.8747 896.251 25.3306 902.075L70.1723 1070.09C59.3986 1077.95 54.1574 1091.63 57.6515 1105.32C62.3104 1123.08 80.3635 1133.56 98.1255 1128.61C115.887 1123.95 126.37 1105.9 121.42 1088.14C121.129 1086.97 120.838 1086.1 120.255 1084.94C120.255 1084.94 117.635 1113.76 95.5049 1119.59C95.5049 1119.59 72.7929 1125.12 65.2222 1103.28C65.2222 1103.28 62.0192 1077.95 77.7429 1075.62L33.1924 902.075C33.1924 902.366 32.0277 898.29 34.0659 888.681Z" fill="#D1EDFB"/>
<path d="M89.1012 1050.28L77.7451 1053.2" stroke="#1F638A" stroke-width="0.5" stroke-miterlimit="10"/>
<path d="M50.9574 907.607L39.8926 910.519" stroke="#1F638A" stroke-width="0.5" stroke-miterlimit="10"/>
<path d="M57.3597 931.484L46.2949 934.396" stroke="#1F638A" stroke-width="0.5" stroke-miterlimit="10"/>
<path d="M63.7672 955.069L52.4111 958.272" stroke="#1F638A" stroke-width="0.5" stroke-miterlimit="10"/>
<path d="M70.1744 978.946L58.8184 981.858" stroke="#1F638A" stroke-width="0.5" stroke-miterlimit="10"/>
<path d="M76.2875 1002.82L65.2227 1005.74" stroke="#1F638A" stroke-width="0.5" stroke-miterlimit="10"/>
<path d="M82.6938 1026.41L71.6289 1029.32" stroke="#1F638A" stroke-width="0.5" stroke-miterlimit="10"/>
<path d="M121.421 1088.14C126.079 1105.9 115.597 1123.95 98.1262 1128.61C80.6554 1133.27 62.6023 1122.79 57.6522 1105.32C54.1581 1091.92 59.3993 1077.95 70.173 1070.08L25.3312 902.074C23.8753 896.542 27.6607 890.427 34.0666 888.68C37.2696 887.806 40.4726 888.097 43.0932 889.553C45.7138 890.718 47.7521 893.048 48.3345 895.959L93.1762 1063.97C106.279 1065.13 117.635 1074.45 121.421 1088.14Z" stroke="#1F638A" stroke-width="0.5" stroke-miterlimit="10"/>
</g>
<mask id="mask43_334_1220" style="mask-type:luminance" maskUnits="userSpaceOnUse" x="0" y="0" width="1456" height="1456">
<path d="M1455.9 0H0V1455.9H1455.9V0Z" fill="white"/>
</mask>
<g mask="url(#mask43_334_1220)">
<path opacity="0.5" d="M1084.06 285.064L1143.76 225.081" stroke="#F3EC79" stroke-width="2" stroke-miterlimit="10" stroke-linecap="round" stroke-linejoin="round" stroke-dasharray="0.39 0.39"/>
</g>
<mask id="mask44_334_1220" style="mask-type:luminance" maskUnits="userSpaceOnUse" x="0" y="0" width="1456" height="1456">
<path d="M1455.9 0H0V1455.9H1455.9V0Z" fill="white"/>
</mask>
<g mask="url(#mask44_334_1220)">
<path opacity="0.5" d="M1324 1163.26L1383.69 1103.57" stroke="#F3EC79" stroke-width="2" stroke-miterlimit="10" stroke-linecap="round" stroke-linejoin="round" stroke-dasharray="0.39 0.39"/>
</g>
<mask id="mask45_334_1220" style="mask-type:luminance" maskUnits="userSpaceOnUse" x="0" y="0" width="1456" height="1456">
<path d="M1455.9 0H0V1455.9H1455.9V0Z" fill="white"/>
</mask>
<g mask="url(#mask45_334_1220)">
<path opacity="0.5" d="M414.641 1338.26L474.624 1278.57" stroke="#F3EC79" stroke-width="2" stroke-miterlimit="10" stroke-linecap="round" stroke-linejoin="round" stroke-dasharray="0.39 0.39"/>
</g>
<mask id="mask46_334_1220" style="mask-type:luminance" maskUnits="userSpaceOnUse" x="0" y="0" width="1456" height="1456">
<path d="M1455.9 0H0V1455.9H1455.9V0Z" fill="white"/>
</mask>
<g mask="url(#mask46_334_1220)">
<path opacity="0.5" d="M874.123 1103.86L934.106 1043.88" stroke="#F3EC79" stroke-width="2" stroke-miterlimit="10" stroke-linecap="round" stroke-linejoin="round" stroke-dasharray="0.39 0.39"/>
</g>
<mask id="mask47_334_1220" style="mask-type:luminance" maskUnits="userSpaceOnUse" x="0" y="0" width="1456" height="1456">
<path d="M1455.9 0H0V1455.9H1455.9V0Z" fill="white"/>
</mask>
<g mask="url(#mask47_334_1220)">
<path opacity="0.5" d="M14.8496 1231.69L74.5415 1172" stroke="#F3EC79" stroke-width="2" stroke-miterlimit="10" stroke-linecap="round" stroke-linejoin="round" stroke-dasharray="0.39 0.39"/>
</g>
<mask id="mask48_334_1220" style="mask-type:luminance" maskUnits="userSpaceOnUse" x="0" y="0" width="1456" height="1456">
<path d="M1455.9 0H0V1455.9H1455.9V0Z" fill="white"/>
</mask>
<g mask="url(#mask48_334_1220)">
<path opacity="0.5" d="M36.1074 470.837L96.0904 410.854" stroke="#F3EC79" stroke-width="2" stroke-miterlimit="10" stroke-linecap="round" stroke-linejoin="round" stroke-dasharray="0.39 0.39"/>
</g>
<mask id="mask49_334_1220" style="mask-type:luminance" maskUnits="userSpaceOnUse" x="0" y="0" width="1456" height="1456">
<path d="M1455.9 0H0V1455.9H1455.9V0Z" fill="white"/>
</mask>
<g mask="url(#mask49_334_1220)">
<path opacity="0.5" d="M107.736 883.731L167.428 824.039" stroke="#F3EC79" stroke-width="2" stroke-miterlimit="10" stroke-linecap="round" stroke-linejoin="round" stroke-dasharray="0.39 0.39"/>
</g>
<mask id="mask50_334_1220" style="mask-type:luminance" maskUnits="userSpaceOnUse" x="0" y="0" width="1456" height="1456">
<path d="M1455.9 0H0V1455.9H1455.9V0Z" fill="white"/>
</mask>
<g mask="url(#mask50_334_1220)">
<path opacity="0.5" d="M603.032 197.128L662.724 137.437" stroke="#F3EC79" stroke-width="2" stroke-miterlimit="10" stroke-linecap="round" stroke-linejoin="round" stroke-dasharray="0.39 0.39"/>
</g>
<mask id="mask51_334_1220" style="mask-type:luminance" maskUnits="userSpaceOnUse" x="0" y="0" width="1456" height="1456">
<path d="M1455.9 0H0V1455.9H1455.9V0Z" fill="white"/>
</mask>
<g mask="url(#mask51_334_1220)">
<path opacity="0.5" d="M1389.51 172.088L1449.2 112.104" stroke="#F3EC79" stroke-width="2" stroke-miterlimit="10" stroke-linecap="round" stroke-linejoin="round" stroke-dasharray="0.39 0.39"/>
</g>
<mask id="mask52_334_1220" style="mask-type:luminance" maskUnits="userSpaceOnUse" x="0" y="0" width="1456" height="1456">
<path d="M1455.9 0H0V1455.9H1455.9V0Z" fill="white"/>
</mask>
<g mask="url(#mask52_334_1220)">
<path opacity="0.5" d="M1132.98 1316.13L1192.96 1256.44" stroke="#F3EC79" stroke-width="2" stroke-miterlimit="10" stroke-linecap="round" stroke-linejoin="round" stroke-dasharray="0.39 0.39"/>
</g>
</g>
</svg>
