<svg width="117" height="48" viewBox="0 0 117 48" fill="none" xmlns="http://www.w3.org/2000/svg">
<path d="M0.700195 36V0.5H7.6002V29.95H25.7002V36H0.700195Z" fill="#fff"/>
<path d="M41.1541 36.5C39.0208 36.5 37.1041 36.15 35.4041 35.45C33.7041 34.7167 32.2541 33.7167 31.0541 32.45C29.8874 31.1833 28.9874 29.7333 28.3541 28.1C27.7208 26.4667 27.4041 24.75 27.4041 22.95C27.4041 21.1167 27.7208 19.3833 28.3541 17.75C28.9874 16.1167 29.8874 14.6667 31.0541 13.4C32.2541 12.1333 33.7041 11.15 35.4041 10.45C37.1041 9.71667 39.0208 9.35 41.1541 9.35C43.2874 9.35 45.1874 9.71667 46.8541 10.45C48.5541 11.15 50.0041 12.1333 51.2041 13.4C52.4041 14.6667 53.3041 16.1167 53.9041 17.75C54.5374 19.3833 54.8541 21.1167 54.8541 22.95C54.8541 24.75 54.5374 26.4667 53.9041 28.1C53.3041 29.7333 52.4041 31.1833 51.2041 32.45C50.0374 33.7167 48.6041 34.7167 46.9041 35.45C45.2041 36.15 43.2874 36.5 41.1541 36.5ZM34.3041 22.95C34.3041 24.4833 34.6041 25.85 35.2041 27.05C35.8041 28.2167 36.6208 29.1333 37.6541 29.8C38.6874 30.4667 39.8541 30.8 41.1541 30.8C42.4208 30.8 43.5708 30.4667 44.6041 29.8C45.6374 29.1 46.4541 28.1667 47.0541 27C47.6874 25.8 48.0041 24.4333 48.0041 22.9C48.0041 21.4 47.6874 20.05 47.0541 18.85C46.4541 17.65 45.6374 16.7167 44.6041 16.05C43.5708 15.3833 42.4208 15.05 41.1541 15.05C39.8541 15.05 38.6874 15.4 37.6541 16.1C36.6208 16.7667 35.8041 17.7 35.2041 18.9C34.6041 20.0667 34.3041 21.4167 34.3041 22.95Z" fill="#fff"/>
<path d="M69.6264 36.15C67.893 36.15 66.293 35.8167 64.8264 35.15C63.393 34.45 62.143 33.4833 61.0764 32.25C60.043 31.0167 59.243 29.6 58.6764 28C58.1097 26.4 57.8264 24.7 57.8264 22.9C57.8264 21 58.1264 19.2333 58.7264 17.6C59.3264 15.9667 60.1597 14.5333 61.2264 13.3C62.3264 12.0333 63.6097 11.0667 65.0764 10.4C66.5764 9.7 68.2264 9.35 70.0264 9.35C72.0597 9.35 73.843 9.81667 75.3764 10.75C76.9097 11.65 78.1764 12.8667 79.1764 14.4V9.8H85.0264V34.75C85.0264 37.35 84.393 39.5667 83.1264 41.4C81.893 43.2667 80.1764 44.6833 77.9764 45.65C75.7764 46.65 73.2764 47.15 70.4764 47.15C67.643 47.15 65.243 46.6667 63.2764 45.7C61.3097 44.7667 59.6264 43.4333 58.2264 41.7L61.8764 38.15C62.8764 39.3833 64.1264 40.35 65.6264 41.05C67.1597 41.75 68.7764 42.1 70.4764 42.1C71.9097 42.1 73.2097 41.8333 74.3764 41.3C75.5764 40.8 76.5264 40 77.2264 38.9C77.9597 37.8333 78.3264 36.45 78.3264 34.75V31.45C77.4597 32.95 76.2264 34.1167 74.6264 34.95C73.0597 35.75 71.393 36.15 69.6264 36.15ZM71.8764 30.8C72.6097 30.8 73.3097 30.6833 73.9764 30.45C74.643 30.2167 75.2597 29.9 75.8264 29.5C76.393 29.1 76.893 28.6333 77.3264 28.1C77.7597 27.5333 78.093 26.9667 78.3264 26.4V20.15C77.9264 19.1167 77.3597 18.2167 76.6264 17.45C75.9264 16.6833 75.1264 16.1 74.2264 15.7C73.3597 15.2667 72.443 15.05 71.4764 15.05C70.443 15.05 69.5097 15.2667 68.6764 15.7C67.843 16.1333 67.1264 16.75 66.5264 17.55C65.9264 18.3167 65.4597 19.1833 65.1264 20.15C64.8264 21.0833 64.6764 22.0667 64.6764 23.1C64.6764 24.1667 64.8597 25.1667 65.2264 26.1C65.593 27.0333 66.093 27.85 66.7264 28.55C67.393 29.25 68.1597 29.8 69.0264 30.2C69.9264 30.6 70.8764 30.8 71.8764 30.8Z" fill="#fff"/>
<path d="M103.166 36.5C101.032 36.5 99.1158 36.15 97.4158 35.45C95.7158 34.7167 94.2658 33.7167 93.0658 32.45C91.8992 31.1833 90.9992 29.7333 90.3658 28.1C89.7325 26.4667 89.4158 24.75 89.4158 22.95C89.4158 21.1167 89.7325 19.3833 90.3658 17.75C90.9992 16.1167 91.8992 14.6667 93.0658 13.4C94.2658 12.1333 95.7158 11.15 97.4158 10.45C99.1158 9.71667 101.032 9.35 103.166 9.35C105.299 9.35 107.199 9.71667 108.866 10.45C110.566 11.15 112.016 12.1333 113.216 13.4C114.416 14.6667 115.316 16.1167 115.916 17.75C116.549 19.3833 116.866 21.1167 116.866 22.95C116.866 24.75 116.549 26.4667 115.916 28.1C115.316 29.7333 114.416 31.1833 113.216 32.45C112.049 33.7167 110.616 34.7167 108.916 35.45C107.216 36.15 105.299 36.5 103.166 36.5ZM96.3158 22.95C96.3158 24.4833 96.6158 25.85 97.2158 27.05C97.8158 28.2167 98.6325 29.1333 99.6658 29.8C100.699 30.4667 101.866 30.8 103.166 30.8C104.432 30.8 105.582 30.4667 106.616 29.8C107.649 29.1 108.466 28.1667 109.066 27C109.699 25.8 110.016 24.4333 110.016 22.9C110.016 21.4 109.699 20.05 109.066 18.85C108.466 17.65 107.649 16.7167 106.616 16.05C105.582 15.3833 104.432 15.05 103.166 15.05C101.866 15.05 100.699 15.4 99.6658 16.1C98.6325 16.7667 97.8158 17.7 97.2158 18.9C96.6158 20.0667 96.3158 21.4167 96.3158 22.95Z" fill="#fff"/>
</svg>
