<svg width="88" height="88" viewBox="0 0 88 88" fill="none" xmlns="http://www.w3.org/2000/svg">
<path d="M2 44C2 20.8358 20.8358 2 44 2C67.1642 2 86 20.8358 86 44C86 67.1642 67.1642 86 44 86C20.8358 86 2 67.1642 2 44Z" fill="#F9FAFF" stroke="#4C70FF" stroke-width="4"/>
<path fill-rule="evenodd" clip-rule="evenodd" d="M65.2773 29.1676C66.343 30.2332 66.343 31.9863 65.2773 33.052L39.4961 58.8332C38.9633 59.366 38.2586 59.641 37.5539 59.641C36.8492 59.641 36.1445 59.366 35.6117 58.8332L22.7211 45.9426C21.6555 44.8769 21.6555 43.1238 22.7211 42.0582C23.7867 40.9926 25.5398 40.9926 26.6055 42.0582L37.5539 53.0066L61.393 29.1676C62.4586 28.0848 64.2117 28.0848 65.2773 29.1676Z" fill="#4C70FF"/>
</svg>
