<svg width="708" height="708" viewBox="0 0 708 708" fill="none" xmlns="http://www.w3.org/2000/svg">
<path d="M324.646 16.4663C342.879 6.23841 365.121 6.23842 383.354 16.4663L423.131 38.779C431.877 43.6854 441.714 46.3211 451.742 46.4453L497.345 47.0102C518.25 47.2691 537.512 58.3902 548.188 76.3643L571.479 115.576C576.601 124.198 583.802 131.399 592.424 136.521L631.636 159.812C649.61 170.488 660.731 189.75 660.99 210.655L661.555 256.258C661.679 266.286 664.315 276.123 669.221 284.869L691.534 324.646C701.762 342.879 701.762 365.121 691.534 383.354L669.221 423.131C664.315 431.877 661.679 441.714 661.555 451.742L660.99 497.345C660.731 518.25 649.61 537.512 631.636 548.188L592.424 571.479C583.802 576.601 576.601 583.802 571.479 592.424L548.188 631.636C537.512 649.61 518.25 660.731 497.345 660.99L451.742 661.555C441.714 661.679 431.877 664.315 423.131 669.221L383.354 691.534C365.121 701.762 342.879 701.762 324.646 691.534L284.869 669.221C276.123 664.315 266.286 661.679 256.258 661.555L210.655 660.99C189.75 660.731 170.488 649.61 159.812 631.636L136.521 592.424C131.399 583.802 124.198 576.601 115.576 571.479L76.3643 548.188C58.3902 537.512 47.2691 518.25 47.0102 497.345L46.4453 451.742C46.3211 441.714 43.6854 431.877 38.779 423.131L16.4663 383.354C6.23841 365.121 6.23842 342.879 16.4663 324.646L38.779 284.869C43.6854 276.123 46.3211 266.286 46.4453 256.258L47.0102 210.655C47.2691 189.75 58.3902 170.488 76.3643 159.812L115.576 136.521C124.198 131.399 131.399 124.198 136.521 115.576L159.812 76.3643C170.488 58.3902 189.75 47.2691 210.655 47.0102L256.258 46.4453C266.286 46.3211 276.123 43.6854 284.869 38.779L324.646 16.4663Z" fill="#E9EDFF"/>
<path d="M512.758 250.308C507.015 244.564 497.704 244.564 491.959 250.308L315.766 426.503L248.04 358.777C242.297 353.033 232.986 353.034 227.242 358.777C221.499 364.52 221.499 373.831 227.242 379.574L305.367 457.698C311.108 463.441 320.426 463.437 326.165 457.698L512.758 271.106C518.501 265.363 518.501 256.051 512.758 250.308Z" fill="#3D63F9"/>
</svg>
